<?xml version="1.0" encoding="UTF-8"?>
<svg width="240px" height="40px" viewBox="0 0 240 40" version="1.1" xmlns="http://www.w3.org/2000/svg" xmlns:xlink="http://www.w3.org/1999/xlink">
    <title>Assets/ Logo </title>
    <g id="Assets/-Logo-" stroke="none" stroke-width="1" fill="none" fill-rule="evenodd">
        <g transform="translate(5.000000, 5.000000)" id="ABG_web_rgb_pos">
            <g transform="translate(0.000000, -0.000000)">
                <path d="M187.215929,9.05114416 C186.832431,8.95867535 186.329754,8.83920834 185.384989,8.83920834 C183.285068,8.83920834 181.809663,10.4260271 181.012039,11.773237 L181.012039,24.0513401 L179.388162,24.0513401 L179.388162,7.70123451 L181.012039,7.70123451 L181.012039,9.88741318 C181.721112,8.59892443 183.699859,7.40155457 185.738527,7.40155457 C186.711922,7.40155457 187.36307,7.5520695 187.540838,7.61214048 L187.215929,9.05114416" id="Fill-1" fill="#ED5505"></path>
                <path d="M213.460954,24.0513401 L213.460954,22.0777722 C212.133356,22.9147162 210.269792,24.382068 207.584636,24.382068 C203.183722,24.382068 202.88478,20.7582355 202.88478,18.2136559 L202.88478,7.70123451 L204.512652,7.70123451 L204.512652,17.704065 C204.512652,20.3694616 204.599205,22.7945742 207.879584,22.7945742 C210.064727,22.7945742 212.751881,20.9377735 213.460954,20.4896035 L213.460954,7.70123451 L214.998943,7.70123451 L214.998943,24.0513401 L213.460954,24.0513401" id="Fill-2" fill="#ED5505"></path>
                <path d="M169.709481,16.5660911 C167.347236,16.5660911 165.664769,15.3363235 165.664769,12.7019748 C165.664769,10.0075551 167.109547,8.48148229 169.798032,8.48148229 C172.339377,8.48148229 173.758189,10.2154412 173.758189,12.5528098 C173.758189,15.0683664 172.103685,16.5660911 169.709481,16.5660911 Z M166.520317,22.2242374 L170.063685,22.2242374 C173.668972,22.2242374 175.145708,23.6031701 175.145708,25.158941 C175.145708,27.1358836 172.754168,29.3821333 169.38657,29.3821333 C166.19674,29.3821333 164.512275,27.9451545 164.512275,26.0593307 C164.512275,24.8909839 165.158763,23.514751 166.520317,22.2242374 Z M177.922079,8.29991944 L173.490538,8.29991944 C173.256178,8.09068345 172.163606,7.1322476 169.622262,7.1322476 C165.573555,7.1322476 163.861126,9.82666725 163.861126,12.7917438 C163.861126,14.6188465 164.48298,15.7871933 165.487001,16.6558601 C164.657419,18.00307 164.245291,19.4980949 164.245291,20.5186266 C164.245291,21.1179865 164.540904,21.8368133 165.158763,22.0170263 C163.56751,23.545124 162.798516,25.1899889 162.798516,26.6573407 C162.798516,29.0831283 164.925069,31 168.794677,31 C173.8767,31 176.888097,27.7635916 176.888097,24.8909839 C176.888097,22.6143613 174.969272,20.5469747 170.685539,20.5469747 L166.078228,20.5469747 L166.078228,17.166126 C167.050957,17.7344379 168.351923,18.00307 169.770734,18.00307 C173.076413,18.00307 175.561165,15.7568203 175.561165,12.6722768 C175.561165,10.9369679 175.057157,10.1270221 174.87939,9.85704021 L177.922079,9.85704021 L177.922079,8.29991944 L177.922079,8.29991944 Z" id="Fill-3" fill="#ED5505"></path>
                <path d="M194.1482,22.8843432 C190.011608,22.8843432 188.739937,19.4717716 188.739937,15.9059853 C188.739937,12.7019748 189.864467,8.74943935 194.088279,8.74943935 C198.399976,8.74943935 199.377365,12.7627207 199.377365,15.8762873 C199.377365,19.2591609 198.339388,22.8843432 194.1482,22.8843432 Z M194.176164,7.3428335 C190.101491,7.3428335 187.05747,10.3362581 187.05747,16.0565003 C187.05747,21.4763875 189.744624,24.2909491 193.999728,24.2909491 C198.017143,24.2909491 201.02854,21.6586253 201.02854,15.8762873 C201.02854,10.3673061 198.72555,7.3428335 194.176164,7.3428335 L194.176164,7.3428335 Z" id="Fill-4" fill="#ED5505"></path>
                <path d="M222.676241,22.8256222 C220.490431,22.8256222 219.752063,22.6447343 218.953108,22.5245923 L218.953108,10.6649611 C219.426489,10.2775371 221.584335,8.93032724 223.354021,8.93032724 C227.57983,8.93032724 228.318199,12.6122058 228.318199,16.1759673 C228.318199,19.9806876 226.457298,22.8256222 222.676241,22.8256222 Z M223.591045,7.46297546 C221.7894,7.46297546 220.135562,8.27089638 218.953108,9.0788173 L218.953108,7.70123451 L217.328565,7.70123451 L217.328565,30.6402491 L218.953108,30.6402491 L218.953108,24.083063 C219.809988,24.231553 221.022403,24.2909491 222.587024,24.2909491 C226.457298,24.2909491 230,22.2849833 230,15.4578153 C230,10.5448192 227.699674,7.46297546 223.591045,7.46297546 L223.591045,7.46297546 Z" id="Fill-5" fill="#ED5505"></path>
                <path d="M30.4981314,9.3791722 C29.9954552,9.88741318 29.4328573,10.5758671 28.8735884,11.9230769 L23.7323094,23.9642709 L20.7189153,24.8606109 L15.8459521,11.264996 C15.5476754,10.488123 15.1655083,10.0683011 14.427806,9.55668532 C14.427806,8.83920834 14.3991767,8.51050535 14.5736154,7.70123451 L21.7236019,7.70123451 C21.7236019,7.8807725 21.6956385,9.67817719 21.6636802,9.76727122 L19.7748161,9.76727122 L22.9932755,19.7694267 L26.3022831,11.564001 C26.5373092,10.965991 26.2443588,10.0683011 25.8894894,9.94815912 C25.8282361,9.67817719 25.0019829,9.61878116 24.8528445,9.58773324 C24.8262127,9.19895926 24.736996,8.27089638 24.9154294,7.70123451 L30.5547241,7.70123451 C30.5547241,7.8807725 30.5260949,9.25768033 30.4981314,9.3791722" id="Fill-6" fill="#D4002A"></path>
                <path d="M40.5150369,24.0513401 L31.3270478,24.0513401 C31.2384969,23.6321932 31.2092019,23.0652311 31.2092019,22.3754273 L33.0095151,21.8064404 C33.5441495,21.6586253 33.8098023,21.1179865 33.8098023,20.4592306 L33.8976874,15.8762873 L33.8976874,9.91778615 L31.1805726,9.91778615 L31.1805726,7.97121644 C32.7738232,7.61214048 35.1081051,7.31246054 36.5262512,7.31246054 C37.4410553,7.31246054 37.9151023,7.58244247 37.9151023,8.63199721 L37.9151023,15.8762873 L37.9723608,20.6974896 C38.0049848,21.4466895 38.1501284,21.6849485 38.4763686,21.7760674 L40.6621778,22.3153563 C40.6621778,22.8843432 40.6315512,23.5727971 40.5150369,24.0513401" id="Fill-7" fill="#D4002A"></path>
                <path d="M47.3727388,24.411091 C44.9805327,24.411091 43.2354806,23.9021751 41.4631308,23.1232772 L41.7307809,18.6921988 L43.3533265,18.6921988 C43.6216424,20.8783775 45.2461854,22.0777722 47.4306631,22.0777722 C49.1737178,22.0777722 50.1777387,21.6586253 50.1777387,20.1899236 C50.1777387,17.643319 42.1435746,18.1232119 42.1435746,12.4043197 C42.1435746,8.93032724 45.0977128,7.3428335 48.3754281,7.3428335 C50.0019684,7.3428335 51.8914984,7.67086155 53.9008716,8.56990137 L53.3682346,12.7330227 L51.8914984,12.5825078 C51.5665898,11.0868079 50.621159,9.70720024 47.9912636,9.70720024 C46.3693838,9.70720024 45.74753,10.3963291 45.74753,11.5059548 C45.74753,13.9000196 54.2251144,13.9310675 54.2251144,19.1106708 C54.2251144,23.1536502 50.4147622,24.411091 47.3727388,24.411091" id="Fill-8" fill="#D4002A"></path>
                <path d="M35.6414079,5.48333297 C34.8324654,5.48333297 32.9535882,3.51853948 32.9535882,2.72614252 C32.9535882,1.8763744 34.8877265,0 35.6414079,0 C36.4250502,0 38.36052,1.90674737 38.36052,2.72614252 C38.36052,3.46049337 36.5102721,5.48333297 35.6414079,5.48333297" id="Fill-9" fill="#D4002A"></path>
                <path d="M9.27587415,20.2202965 C8.77319794,20.3998345 7.09006487,21.0876135 5.84968635,21.0876135 C4.61063942,21.0876135 4.04804155,20.4275077 4.04804155,19.5601907 C4.04804155,18.2136559 5.11131825,17.5549 6.85503878,17.2268719 C7.79980373,17.0446341 8.98092638,16.9244922 9.27587415,16.866446 L9.27587415,20.2202965 Z M15.9211871,21.3278974 L13.4710567,21.3278974 L13.263994,15.8762873 L13.263994,11.9838229 C13.263994,7.52169653 9.12873316,7.31246054 6.70523461,7.3428335 C4.87562636,7.3428335 2.9568014,7.61214048 1.00535242,8.36066537 L1.71375969,11.20425 C3.36826352,10.785778 4.84433393,10.6048902 5.90761063,10.6048902 C8.65668358,10.6048902 9.27587415,11.115156 9.27587415,12.7917438 L9.27587415,14.8577805 C8.7439029,14.9165016 7.44426851,15.0386684 6.14529991,15.2485793 C3.10327659,15.6967493 0,16.9548651 0,20.5186266 C0,23.0942542 1.71375969,24.321322 4.19518253,24.321322 C6.55809362,24.321322 8.50821101,22.5853382 9.33446422,21.6849485 C9.45297596,23.4236321 10.0142423,24.2909491 12.1700907,24.2909491 C13.3232499,24.2909491 15.2141114,23.514751 16.1282497,22.6447343 L15.9211871,21.3278974 L15.9211871,21.3278974 Z" id="Fill-10" fill="#D4002A"></path>
                <path d="M92.3585979,24.231553 C94.1009868,24.231553 95.6649424,23.6031701 96.7002556,23.0652311 L96.4332713,21.3278974 L93.9811435,21.3278974 L93.8033759,15.9059853 L93.8033759,9.01874633 C93.8033759,7.85039953 93.0956344,7.37185656 91.9438068,7.37185656 C90.5549557,7.37185656 88.9590419,7.79167846 87.3657914,8.1197065 L87.3657914,9.94815912 L89.815256,9.94815912 L89.815256,15.8762873 L89.6987416,20.0097106 C88.811901,20.4275077 86.8910786,21.3278974 85.5634808,21.3278974 C83.9669012,21.3278974 83.6719535,20.1899236 83.6433242,18.45124 L83.6133634,15.8452394 L83.6133634,9.01874633 C83.6133634,7.8807725 82.9335854,7.37185656 81.7504653,7.37185656 C80.3636116,7.37185656 78.6505177,7.76400531 77.0552698,8.1197065 L77.0552698,9.94815912 L79.5633245,9.94815912 L79.5633245,19.2301378 C79.5633245,22.0460493 79.9208571,24.382068 84.6759743,24.382068 C86.863781,24.382068 88.5748775,23.0031353 89.8738461,21.8665114 C89.965726,23.6031701 90.9098251,24.231553 92.3585979,24.231553" id="Fill-11" fill="#00285F"></path>
                <path d="M152.86084,24.382068 C153.953412,24.382068 156.379573,23.7820331 157.324338,23.3325132 L156.910213,20.9377735 C156.024038,21.0572405 154.75503,21.1456596 153.721049,21.1456596 C151.918738,21.1456596 151.416062,20.9377735 151.387433,19.4717716 L151.296884,15.7871933 L151.296884,10.3058852 L156.701819,10.3058852 L156.701819,7.70123451 L151.296884,7.70123451 L151.296884,4.34738401 L150.412707,4.34738401 L144.828007,8.71974134 L144.828007,10.3058852 L147.190919,10.3058852 L147.103033,19.2301378 C147.071075,23.9642709 149.080448,24.382068 152.86084,24.382068" id="Fill-12" fill="#00285F"></path>
                <path d="M107.60267,15.6677263 L107.483493,20.2202965 C106.717161,20.4896035 105.859615,20.9087505 104.647866,20.9087505 C102.579903,20.9087505 100.984655,19.4980949 100.984655,16.4155762 C100.984655,12.5825078 101.812905,9.82666725 104.974772,9.82666725 C106.155229,9.82666725 106.954185,10.0075551 107.60267,10.1573951 L107.60267,15.6677263 Z M114.131469,21.3278974 L111.739928,21.3278974 L111.619419,15.6967493 L111.650046,2.67147118 C111.650046,1.44237845 111.207291,1.17307148 110.085425,1.17307148 C108.696573,1.17307148 106.480138,1.47275142 104.885555,1.80347928 L104.885555,3.74869908 L107.60267,3.74869908 L107.60267,7.73160748 C106.893597,7.64183849 106.183858,7.58244247 105.061991,7.58244247 C100.426718,7.58244247 96.731548,11.025387 96.731548,16.5066951 C96.731548,23.0031353 100.099146,24.261926 103.290307,24.261926 C105.299015,24.261926 106.687866,22.7635263 107.572709,21.8064404 C107.572709,22.9147162 107.956874,24.321322 109.462239,24.321322 C111.650046,24.321322 113.156077,23.545124 114.426416,22.8256222 L114.131469,21.3278974 L114.131469,21.3278974 Z" id="Fill-13" fill="#00285F"></path>
                <path d="M120.666925,15.9377082 C118.56767,15.9377082 117.830633,14.5284025 117.830633,12.7627207 C117.830633,10.996364 118.479784,9.31842627 120.726847,9.31842627 C122.497199,9.31842627 123.382043,10.785778 123.382043,12.7019748 C123.382043,14.6498944 122.46857,15.9377082 120.666925,15.9377082 Z M117.475764,23.7226371 L122.439275,23.7226371 C124.359432,23.7226371 125.304862,24.1411091 125.304862,25.3405038 C125.304862,26.9880685 124.004562,28.2158114 121.67028,28.2158114 C118.124915,28.2158114 116.620881,27.1358836 116.620881,25.4896688 C116.620881,24.770842 117.033675,24.172832 117.475764,23.7226371 Z M130.238413,7.3428335 L125.569849,8.45043437 C124.623087,7.73160748 122.969915,7.16262057 120.666925,7.16262057 C116.235385,7.16262057 114.020281,9.97650722 114.020281,13.0009798 C114.020281,14.8280825 114.8472,16.1462692 116.116873,16.9548651 C115.02297,18.4235668 114.136795,20.2493196 114.136795,21.5344336 C114.136795,23.0031353 115.260659,23.4843781 115.87985,23.4843781 C114.726691,24.0223171 113.279249,25.3405038 113.279249,26.9570206 C113.279249,29.9821681 116.59092,30.7293431 119.869301,30.7293431 C124.949993,30.7293431 129.321611,28.2738575 129.321611,24.50086 C129.321611,21.5344336 127.93276,20.3100655 122.645672,20.3100655 L117.329288,20.3100655 L117.329288,17.465131 C118.359941,17.852555 119.543061,18.0334429 120.782774,18.0334429 C124.713635,18.0334429 127.517969,15.7871933 127.517969,12.5528098 C127.517969,11.5349779 127.31357,10.785778 127.135136,10.3963291 L130.238413,10.3963291 L130.238413,7.3428335 L130.238413,7.3428335 Z" id="Fill-14" fill="#00285F"></path>
                <path d="M133.694562,14.1119554 C133.783778,11.444534 135.052786,9.64982908 137.358439,9.64982908 C139.218008,9.64982908 140.104848,11.264996 140.075553,14.1119554 L133.694562,14.1119554 Z M144.387916,14.8577805 C144.387916,10.3963291 142.556976,7.37185656 137.594796,7.37185656 C132.691207,7.37185656 129.589262,11.7138409 129.589262,16.2657362 C129.589262,22.9147162 132.809718,24.2909491 138.127433,24.2909491 C140.044927,24.2909491 142.408504,23.753685 144.0943,22.7945742 L143.383229,20.5469747 C141.610214,20.9377735 139.957042,21.0282175 138.836506,21.0282175 C136.026846,21.0282175 133.958217,20.0097106 133.752486,16.1172462 L144.387916,16.1172462 L144.387916,14.8577805 L144.387916,14.8577805 Z" id="Fill-15" fill="#00285F"></path>
                <path d="M72.6729985,15.2107819 C72.6729985,17.5832481 72.3733901,18.7070478 71.4938732,20.0097106 C70.6136905,21.3116985 69.0477376,21.5074354 68.3965888,21.5074354 C67.74544,21.5074354 66.1621764,21.2934747 66.1621764,21.2934747 L66.0390041,16.0848484 L66.0390041,10.6615864 C66.9364975,10.2518888 69.0124504,10.1087984 69.0124504,10.1087984 C73.0072282,10.0197043 72.6729985,15.2107819 72.6729985,15.2107819 Z M77.0146562,14.7477629 C77.0146562,14.7477629 77.1185204,10.7405561 74.9546824,8.88443032 C74.9546824,8.88443032 73.5611708,7.45015132 70.023795,7.45015132 C70.023795,7.45015132 67.9851267,7.45015132 66.0290171,8.35661565 L66.0290171,2.26109865 C66.0290171,2.26109865 66.0909362,1.20141958 64.8638736,1.17509634 C63.3864716,1.14337347 61.3790957,1.449128 59.3397616,1.92362124 L59.3397616,3.7378998 L62.054879,3.7378998 L62.054879,16.0699993 L61.9097354,23.4803283 C61.9097354,23.4803283 65.1967718,24.471837 68.6296175,24.2396525 C68.6296175,24.2396525 72.3960272,24.366544 75.0172673,21.244878 C75.0172673,21.244878 77.2230504,18.9453069 77.0146562,14.7477629 L77.0146562,14.7477629 Z" id="Fill-16" fill="#00285F"></path>
            </g>
        </g>
    </g>
</svg>