<svg width="84" height="30" viewBox="0 0 84 30" fill="none" xmlns="http://www.w3.org/2000/svg">
<path d="M0 28.5669H6.93592L8.57463 23.6507H19.2453L20.9221 28.5669H28.0105L17.5685 0.9375H10.4039L0 28.5669ZM13.9481 7.83531L17.4922 18.3535H10.3658L13.9481 7.83531Z" fill="#18181B"/>
<path d="M49.7641 8.06397H43.2093L38.9791 13.5898L34.9014 8.06397H27.7749L35.3587 18.3154L27.4701 28.5669H34.1392L38.598 22.698L42.9806 28.5669H50.069L42.2184 17.9724L49.7641 8.06397Z" fill="#18181B"/>
<path d="M58.5969 0.9375H52.3088V28.5669H58.5969V0.9375Z" fill="#18181B"/>
<path d="M77.545 22.1264C76.8209 23.3459 75.2965 24.1843 72.9338 24.1843C70.6472 24.1843 68.3987 22.8123 68.2082 19.916H83.4139C83.8331 12.6371 79.641 7.45422 72.8575 7.45422C66.8744 7.45422 61.882 11.6463 61.882 18.2011C61.882 24.9846 66.4552 29.0623 73.1243 29.0623C77.2401 29.0623 81.5084 26.9663 83.3376 22.1264H77.545ZM72.8575 12.256C75.2203 12.256 77.0877 13.5517 77.1639 16.1051H68.2844C68.6274 13.3993 70.6472 12.256 72.8575 12.256Z" fill="#18181B"/>
</svg>
