<svg width="334" height="327" viewBox="0 0 334 327" fill="none" xmlns="http://www.w3.org/2000/svg">
<path d="M291.155 255.341C248.196 317.758 137.196 359.341 43.9062 255.341" stroke="#1C3F30" stroke-width="15"/>
<path d="M38.2202 230.296C39.7931 231.353 40.8868 232.483 41.5118 233.692C42.1264 234.9 42.5327 235.994 42.741 236.963C42.9493 237.921 43.0014 238.817 42.8868 239.65C42.6264 241.317 41.6525 242.582 39.9702 243.442C38.4597 244.218 36.8191 244.119 35.0535 243.15C33.1368 242.098 31.4702 240.192 30.0535 237.442L29.741 236.796C29.6889 236.671 29.6264 236.536 29.5535 236.379C29.4702 236.228 29.4025 236.082 29.3452 235.942C27.7202 236.874 27.1264 238.088 27.5535 239.588C27.6785 240.103 27.8764 240.619 28.1368 241.129C28.4025 241.629 28.7097 242.103 29.0535 242.546C29.3868 242.973 29.7514 243.379 30.1368 243.754C30.9858 244.598 31.7306 245.134 32.366 245.358L32.3452 245.442L29.116 247.671C27.1993 246.322 25.6785 244.556 24.5535 242.379C22.7931 238.963 22.8972 236.15 24.866 233.942C25.491 233.249 26.2983 232.645 27.2827 232.129L32.9493 229.213C34.1577 228.588 34.7618 227.728 34.7618 226.629L38.8243 228.129C38.8243 228.911 38.6264 229.629 38.2202 230.296ZM32.1785 234.463C32.2618 234.786 32.3816 235.088 32.5327 235.379L32.866 236.004C34.0639 238.327 35.3347 239.536 36.6785 239.629C37.0691 239.661 37.4389 239.588 37.7827 239.421C38.116 239.244 38.3816 239.025 38.5743 238.775C38.7722 238.525 38.8816 238.223 38.9077 237.858C38.9233 237.15 38.6577 236.265 38.116 235.192C37.5639 234.108 36.7827 233.244 35.7827 232.588C35.6889 232.645 35.5743 232.707 35.4493 232.775L32.1785 234.463Z" fill="#1C3F30"/>
<path d="M13.8715 216.058L12.6632 211.225L23.4132 204.142L10.6215 203.017L9.45486 198.287L29.0799 200.892L29.9549 204.412L13.8715 216.058Z" fill="#1C3F30"/>
<path d="M17.9738 192.649C16.6145 192.79 15.328 192.686 14.1197 192.337C12.9009 191.993 11.8072 191.441 10.8488 190.691C8.79674 189.056 7.61966 186.764 7.32799 183.816C7.06758 181.316 7.68216 179.228 9.18216 177.545C10.6301 175.91 12.5572 174.972 14.9738 174.733C15.8905 174.639 16.5259 174.644 16.8697 174.754C17.3176 175.879 17.7186 178.233 18.078 181.816L18.7238 188.004C19.9217 187.577 20.8176 186.769 21.4113 185.587C21.9947 184.394 22.1978 182.915 22.0155 181.149C21.8228 179.29 21.328 177.728 20.5363 176.462C20.3176 176.118 20.1197 175.873 19.953 175.733C20.453 175.691 20.9634 175.67 21.4738 175.67L24.2238 175.545C24.9322 176.394 25.5051 177.79 25.9322 179.733C26.0728 180.332 26.1613 180.899 26.203 181.441C26.5103 184.399 25.9009 186.936 24.3697 189.045C22.828 191.17 20.6978 192.373 17.9738 192.649ZM14.4113 179.504C11.953 180.243 10.8384 181.733 11.0572 183.983C11.2395 185.748 12.1405 187.019 13.7655 187.795C14.2655 188.035 14.802 188.191 15.3697 188.274C15.3592 187.998 15.3384 187.649 15.3072 187.233L15.1822 185.941C15.1561 185.514 15.1197 185.097 15.078 184.691L14.9738 183.712C14.9217 183.118 14.8488 182.524 14.7655 181.941L14.5572 180.524C14.5155 180.149 14.4686 179.811 14.4113 179.504Z" fill="#1C3F30"/>
<path d="M23.4167 164.556C24.4323 164.613 25.0885 164.629 25.3958 164.597L25.1667 168.993L0 167.743L0.229167 163.41L8.375 163.806C7.29167 162.254 6.79167 160.676 6.875 159.077C6.97396 157.092 7.70313 155.535 9.0625 154.41C10.4271 153.316 12.1823 152.816 14.3333 152.91L21.3125 153.264C23.3021 153.363 24.5 153.389 24.9167 153.347C25.3177 153.306 25.5729 153.243 25.6875 153.16C25.8125 153.066 25.9271 152.983 26.0417 152.91L26.1042 152.931C25.9635 153.889 25.8854 154.587 25.875 155.014L25.8125 156.264C25.7812 156.655 25.776 157.17 25.7917 157.806L15.6042 157.306C13.9792 157.222 12.7604 157.514 11.9375 158.181C11.3281 158.696 11 159.42 10.9583 160.347C10.8906 161.722 11.625 162.962 13.1667 164.056L23.4167 164.556Z" fill="#1C3F30"/>
<path d="M3.4527 144.51C2.15061 143.343 1.02561 142.171 0.0776978 140.989L3.61936 137.718C4.17666 138.317 4.71312 138.88 5.22353 139.406C5.22353 139.406 5.78082 139.958 6.8902 141.052L3.4527 144.51ZM25.5777 143.406C26.5725 143.562 27.2339 143.645 27.5569 143.656L26.8277 148.072L8.6402 145.114L9.34853 140.76L25.5777 143.406Z" fill="#1C3F30"/>
<path d="M30.6267 123.649C31.5694 125.248 31.6736 127.409 30.9392 130.128C30.2413 132.753 28.8611 134.685 26.7934 135.92C24.7413 137.17 22.3663 137.435 19.6684 136.711C16.934 135.977 14.9079 134.545 13.585 132.42C12.21 130.144 11.9184 127.524 12.71 124.566C13.2829 122.472 14.21 120.836 15.5017 119.67L19.6892 121.524L19.6267 121.628C18.835 121.993 18.2517 122.441 17.8767 122.982C17.2829 123.888 16.8506 124.826 16.585 125.795C16.3246 126.769 16.2465 127.566 16.3559 128.191C16.4548 128.805 16.6684 129.373 17.0017 129.899C17.6996 130.941 18.7934 131.659 20.2934 132.045C22.9496 132.769 24.9288 132.326 26.2309 130.711C26.6788 130.144 26.9965 129.503 27.1892 128.795C27.3715 128.086 27.4756 127.456 27.5017 126.899C27.5329 126.331 27.4913 125.805 27.3767 125.316C27.1579 124.274 26.7934 123.513 26.2934 123.024L26.3767 122.899L30.6267 123.649Z" fill="#1C3F30"/>
<path d="M33.5733 115.317C34.5161 115.681 35.1411 115.895 35.4483 115.962L33.865 120.15L9.34418 110.796L10.9067 106.671L33.5733 115.317Z" fill="#1C3F30"/>
<path d="M29.0083 107.315C27.7895 106.69 26.7687 105.898 25.9458 104.94C25.1125 103.982 24.5031 102.919 24.1125 101.753C23.2791 99.2838 23.5448 96.7317 24.9041 94.1067C26.0448 91.8724 27.7062 90.4557 29.8833 89.8567C31.9823 89.2734 34.1073 89.539 36.2583 90.6484C37.076 91.0651 37.602 91.414 37.8416 91.6901C37.602 92.888 36.6593 95.0807 35.0083 98.2734L32.175 103.794C33.425 104.117 34.6229 103.94 35.7583 103.273C36.8937 102.596 37.8677 101.461 38.675 99.8776C39.5343 98.2109 39.9718 96.638 39.9875 95.1484C39.9875 94.7317 39.9562 94.4192 39.9041 94.2109C40.3468 94.4505 40.7843 94.7005 41.2166 94.9609L43.5708 96.3984C43.7062 97.4817 43.425 98.9609 42.7166 100.836C42.5083 101.393 42.2843 101.914 42.05 102.398C40.6854 105.039 38.7791 106.836 36.3208 107.794C33.8781 108.727 31.4406 108.565 29.0083 107.315ZM33.1958 94.3359C30.727 93.6171 28.977 94.263 27.9458 96.2734C27.1281 97.8567 27.1906 99.414 28.1333 100.94C28.425 101.398 28.7895 101.831 29.2166 102.232C29.3573 101.982 29.5239 101.68 29.7166 101.315L30.3 100.169C30.5239 99.7942 30.727 99.4297 30.9041 99.0651L31.3625 98.1692C31.6437 97.6432 31.9041 97.1224 32.1541 96.6067L32.7583 95.2734C32.925 94.9297 33.0708 94.6171 33.1958 94.3359Z" fill="#1C3F30"/>
<path d="M59.4967 76.6396C57.356 79.1552 55.2779 80.6604 53.2675 81.1604C53.0071 80.9104 52.7206 80.6187 52.4133 80.2854L51.5383 79.3687C50.9706 78.7594 50.6165 78.3792 50.4758 78.2229C50.3404 78.0719 50.2675 77.9885 50.2675 77.9729C50.2571 77.9469 50.3873 77.9312 50.6633 77.9312C50.929 77.9312 51.3404 77.8427 51.8925 77.6604C52.4342 77.4677 52.9967 77.1969 53.58 76.8479C54.856 76.1135 55.9863 75.1708 56.9758 74.0146C58.2935 72.4729 58.4342 71.2594 57.3925 70.3687C57.0696 70.0927 56.7102 70.0302 56.3092 70.1812C55.5696 70.4729 54.6946 71.0719 53.6842 71.9729C52.6842 72.8792 51.7779 73.5458 50.955 73.9729C50.1217 74.4052 49.3456 74.6604 48.6217 74.7437C47.2623 74.9 46.0123 74.4885 44.8717 73.5146C43.4706 72.3219 42.83 70.8479 42.955 69.0979C43.0696 67.3635 43.929 65.5562 45.5383 63.6812C47.1373 61.8219 49.0175 60.6917 51.1842 60.2854C51.3665 60.551 51.5331 60.8062 51.6842 61.0562C52.1008 61.7646 52.4029 62.2802 52.58 62.5979L53.1008 63.5979C53.1581 63.6708 53.179 63.7021 53.1633 63.7021C53.1529 63.7333 53.0071 63.7333 52.7258 63.7021C51.5904 63.6917 50.4081 64.1812 49.1842 65.1812C48.8092 65.5041 48.4654 65.8479 48.1425 66.2229C46.7571 67.8479 46.5488 69.0875 47.5175 69.9312C47.8665 70.2229 48.2675 70.2802 48.7258 70.0979C49.6008 69.7385 50.5956 69.0771 51.705 68.1187C52.804 67.1604 53.7258 66.5146 54.4758 66.1812C55.2363 65.8479 55.9602 65.6708 56.6425 65.6396C57.9029 65.5875 59.106 66.051 60.2467 67.0354C61.5227 68.1187 62.1113 69.5042 62.0175 71.1812C61.9446 72.9469 61.106 74.7646 59.4967 76.6396Z" fill="#1C3F30"/>
<path d="M74.7893 58.781C74.482 60.7289 73.6695 62.281 72.3518 63.4477C70.9195 64.6977 69.3726 65.2081 67.7059 64.9685C66.107 64.7081 64.5966 63.755 63.1643 62.1143L58.5393 56.8852C56.9976 55.1248 56.0757 54.1456 55.7684 53.9477C55.4663 53.755 55.258 53.6352 55.1434 53.5935C55.5913 53.2602 56.0288 52.9008 56.4559 52.5102L57.5601 51.5518C57.8518 51.2914 58.2268 50.9425 58.6851 50.5102L65.4143 58.156C67.008 59.9789 68.4247 60.6039 69.6643 60.031C70.0497 59.8539 70.4195 59.6039 70.7684 59.281C71.8101 58.3643 72.3153 57.255 72.2893 55.9477L63.6851 46.156L66.9559 43.281L77.6434 55.4268C78.3205 56.1925 78.8518 56.7185 79.2268 57.0102L75.8518 59.9893L74.7893 58.781Z" fill="#1C3F30"/>
<path d="M78.0397 36.1111C78.7793 34.835 79.722 33.8298 80.873 33.0902C82.0241 32.3402 83.1335 31.8819 84.2064 31.7152C85.2741 31.5381 86.3418 31.585 87.4147 31.8611C89.7324 32.46 91.6282 33.9027 93.1022 36.1944C94.7116 38.6944 95.2689 41.1892 94.7689 43.6736C94.2793 46.0642 92.9668 47.9444 90.8314 49.3194C88.9564 50.5277 87.0918 51.0381 85.248 50.8402C83.1751 50.5902 81.5189 49.5017 80.2689 47.5694L69.8522 31.3402L73.4772 29.0069L78.0397 36.1111ZM83.873 45.1736C84.9824 46.9236 86.6126 47.1059 88.7689 45.7152C89.821 45.0486 90.4147 44.0069 90.5397 42.5902C90.6647 41.1736 90.2741 39.7569 89.373 38.3402C88.4564 36.9392 87.3835 36.1215 86.1647 35.8819C85.0501 35.6892 83.9147 35.9652 82.748 36.7152C82.0397 37.1631 81.4147 37.8975 80.873 38.9236C80.7064 39.2465 80.571 39.559 80.4564 39.8611L83.873 45.1736Z" fill="#1C3F30"/>
<path d="M107.924 39.9507C104.924 41.3257 102.408 41.8205 100.382 41.4298C100.242 41.0861 100.112 40.7007 99.9866 40.284L99.5699 39.0757C99.3199 38.2736 99.1637 37.7788 99.0908 37.5965C99.0231 37.4038 98.997 37.2944 99.0074 37.2632C99.0074 37.2371 99.1324 37.2788 99.3824 37.3882C99.6324 37.5027 100.039 37.5861 100.612 37.6382C101.179 37.6955 101.804 37.6955 102.487 37.6382C103.955 37.5027 105.382 37.1121 106.757 36.4715C108.601 35.6277 109.242 34.5861 108.674 33.3465C108.507 32.9611 108.195 32.7527 107.737 32.7215C106.955 32.6798 105.924 32.8621 104.632 33.2632C103.341 33.6694 102.226 33.8882 101.299 33.9298C100.382 33.9611 99.5699 33.8673 98.8616 33.659C97.5699 33.2319 96.6116 32.3361 95.9866 30.9715C95.2262 29.3048 95.2574 27.6955 96.0908 26.1382C96.9241 24.6121 98.4658 23.3361 100.716 22.3048C102.935 21.2944 105.122 21.0548 107.278 21.5965C107.32 21.9038 107.362 22.2007 107.403 22.4923C107.487 23.3152 107.533 23.909 107.549 24.284L107.612 25.3882C107.622 25.4871 107.622 25.534 107.612 25.534C107.596 25.5496 107.466 25.4819 107.216 25.3257C106.174 24.8569 104.893 24.8205 103.382 25.2215C102.908 25.3361 102.445 25.4923 101.987 25.7007C100.039 26.6069 99.3356 27.6486 99.8616 28.8257C100.054 29.2319 100.403 29.4402 100.903 29.4507C101.846 29.508 103.018 29.3361 104.424 28.9298C105.841 28.5132 106.955 28.3152 107.778 28.3257C108.612 28.3413 109.341 28.4819 109.966 28.7423C111.117 29.2319 112.007 30.159 112.632 31.534C113.341 33.0496 113.299 34.5496 112.507 36.034C111.7 37.6173 110.174 38.9246 107.924 39.9507Z" fill="#1C3F30"/>
<path d="M132.557 28.9833C131.693 30.624 129.917 31.8531 127.224 32.6708C124.625 33.4781 122.25 33.3479 120.099 32.275C117.943 31.1917 116.463 29.3167 115.641 26.65C114.807 23.9417 114.943 21.4625 116.036 19.2125C117.213 16.8375 119.276 15.2021 122.224 14.2958C124.292 13.6604 126.172 13.5823 127.87 14.0667L128.495 18.5667L128.391 18.5875C127.667 18.1187 126.974 17.8687 126.307 17.8375C125.234 17.7958 124.213 17.9312 123.245 18.2333C122.286 18.525 121.568 18.8896 121.099 19.3167C120.625 19.7333 120.255 20.2125 119.995 20.7542C119.495 21.9104 119.463 23.2229 119.911 24.6917C120.729 27.3323 122.172 28.7698 124.245 29.0042C124.953 29.0875 125.651 29.0198 126.349 28.7958C127.057 28.5771 127.646 28.3271 128.12 28.0458C128.604 27.7698 129.036 27.4573 129.411 27.1083C130.161 26.3896 130.609 25.6708 130.766 24.9625L130.911 24.9833L132.557 28.9833Z" fill="#1C3F30"/>
<path d="M141.145 27.0701C141.338 28.0596 141.483 28.6951 141.582 28.9867L137.291 29.7992L133.853 11.7159L138.082 10.9242L138.332 12.2367C139.108 10.9346 140.03 10.1846 141.103 9.98672C142.187 9.77839 143.067 9.74714 143.749 9.88255L144.312 14.5909L144.27 14.6742C143.713 14.0232 142.801 13.8201 141.541 14.0701C141.067 14.1534 140.608 14.419 140.166 14.8617C139.718 15.294 139.374 15.8096 139.124 16.4034L141.145 27.0701Z" fill="#1C3F30"/>
<path d="M147.277 4.16667C148.064 2.625 148.907 1.23958 149.798 0L153.881 2.58333C153.449 3.23958 153.053 3.89063 152.694 4.54167C152.694 4.54167 152.303 5.22917 151.527 6.60417L147.277 4.16667ZM154.194 25.25C154.303 26.25 154.392 26.9063 154.465 27.2083L150.006 27.6875L148.048 9.375L152.444 8.89583L154.194 25.25Z" fill="#1C3F30"/>
<path d="M164.693 26.2542L164.672 31.4417C164.656 32.4521 164.677 33.1136 164.735 33.4209L160.339 33.4L160.485 8.19169L164.797 8.21252L164.776 9.35836C166.219 8.35836 167.589 7.86878 168.88 7.87919C170.182 7.87919 171.339 8.06669 172.339 8.44169C173.349 8.81669 174.24 9.38961 175.005 10.15C176.672 11.8167 177.495 14.1865 177.485 17.2542C177.485 19.2854 176.995 21.0979 176.026 22.6917C175.203 24.025 174.078 25.1031 172.651 25.9209C171.37 26.6136 169.99 26.9521 168.505 26.9417C167.031 26.9417 165.761 26.7073 164.693 26.2542ZM164.714 21.8167C165.599 22.5667 166.761 22.9521 168.193 22.9625C170.511 22.9782 172.016 21.8688 172.714 19.6292C172.948 18.8688 173.068 18.0459 173.068 17.1709C173.078 16.2959 173.005 15.5979 172.839 15.0667C172.682 14.5406 172.469 14.0875 172.193 13.7125C171.927 13.3271 171.636 13.0042 171.318 12.7542C170.995 12.4938 170.672 12.2854 170.339 12.1292C169.724 11.8688 169.099 11.7334 168.464 11.7334C167.839 11.7229 167.177 11.8584 166.485 12.15C165.802 12.4417 165.224 12.8323 164.755 13.3167L164.714 21.8167Z" fill="#1C3F30"/>
<path d="M190.318 24.5597C191.818 24.768 192.901 24.518 193.568 23.8097H193.714L193.214 27.8722C192.557 28.3722 191.448 28.6065 189.88 28.5805C189.432 28.5909 188.901 28.5597 188.276 28.4763C187.662 28.393 187.011 28.1742 186.318 27.8305C185.62 27.4972 185.057 27.0336 184.63 26.4555C183.714 25.2211 183.406 23.4555 183.714 21.1638L184.818 13.2263L182.193 12.8513C182.219 12.518 182.255 12.1794 182.297 11.8305L182.672 9.14299C182.698 8.93465 182.719 8.83049 182.734 8.83049L185.359 9.20549L186.047 4.22632L190.318 4.80965L189.63 9.78882L194.443 10.4347L193.901 14.4555L189.089 13.8097L188.109 20.9347C187.859 22.768 188.224 23.8826 189.214 24.268C189.505 24.4086 189.87 24.5076 190.318 24.5597Z" fill="#1C3F30"/>
<path d="M202.281 6.6862C203.531 5.47786 204.781 4.44662 206.031 3.58203L209.031 7.35286C208.406 7.84245 207.822 8.32682 207.281 8.8112C207.281 8.8112 206.697 9.33203 205.531 10.3737L202.281 6.6862ZM201.906 28.8529C201.682 29.8477 201.557 30.5039 201.531 30.8112L197.156 29.7904L201.322 11.8529L205.635 12.8529L201.906 28.8529Z" fill="#1C3F30"/>
<path d="M208.842 23.0607C209.258 21.842 209.868 20.7482 210.675 19.7899C211.477 18.8212 212.425 18.0555 213.508 17.4982C215.826 16.2899 218.331 16.1597 221.029 17.1024C223.737 18.0607 225.581 19.6753 226.571 21.9357C227.513 24.092 227.529 26.4566 226.612 29.0399C225.706 31.6076 224.164 33.467 221.987 34.6232C219.706 35.8316 217.206 35.9566 214.487 34.9982C211.68 34.0087 209.789 32.3472 208.821 30.0191C207.93 27.9097 207.935 25.592 208.842 23.0607ZM212.904 24.3941C212.664 25.092 212.539 25.8055 212.529 26.5399C212.529 27.2639 212.664 27.9305 212.946 28.5399C213.498 29.8889 214.519 30.8212 216.008 31.3316C217.394 31.8316 218.664 31.7222 219.821 31.0191C220.93 30.3524 221.758 29.2587 222.3 27.7274C222.842 26.1753 222.883 24.7691 222.425 23.5191C221.925 22.2274 220.93 21.3212 219.446 20.7899C217.946 20.2639 216.576 20.3837 215.342 21.1441C214.217 21.8837 213.404 22.967 212.904 24.3941Z" fill="#1C3F30"/>
<path d="M232.327 39.8593C231.838 40.7603 231.525 41.4426 231.39 41.9009L227.473 39.7968L236.161 23.5468L239.952 25.5884L239.202 26.9843C241.171 26.5676 242.937 26.7759 244.494 27.6093C246.202 28.5155 247.249 29.8176 247.64 31.5259C248.041 33.2238 247.734 35.0155 246.723 36.9009L243.432 43.0676C242.484 44.8176 241.942 45.8801 241.807 46.2551C241.666 46.6405 241.609 46.9113 241.64 47.0676C241.682 47.2186 241.713 47.3645 241.744 47.5051L241.661 47.5259C240.853 46.9947 240.265 46.6353 239.89 46.4426L238.807 45.8593C238.473 45.677 238.015 45.453 237.432 45.1926L241.952 36.7134C243.577 33.6718 243.473 31.6665 241.64 30.6926C240.265 29.9582 238.744 30.0572 237.077 30.9843L232.327 39.8593Z" fill="#1C3F30"/>
<path d="M268.296 66.137C266.447 66.262 264.463 65.3922 262.338 63.5328C260.296 61.7255 259.181 59.6265 259.004 57.2411C258.796 54.8401 259.614 52.5901 261.463 50.4911C263.338 48.3661 265.525 47.1942 268.025 46.9703C270.661 46.7359 273.134 47.6317 275.442 49.6578C277.067 51.1057 278.114 52.6734 278.588 54.3661L275.088 57.262L274.983 57.1578C275.025 56.2932 274.879 55.5745 274.546 54.9911C274.015 54.0745 273.369 53.2828 272.608 52.6161C271.858 51.9495 271.181 51.5224 270.588 51.3245C269.989 51.1317 269.379 51.0692 268.754 51.137C267.515 51.3036 266.384 51.9651 265.358 53.1161C263.536 55.189 263.067 57.1682 263.942 59.0745C264.244 59.7099 264.671 60.2724 265.213 60.762C265.765 61.2463 266.296 61.6213 266.796 61.887C267.296 62.1474 267.78 62.3453 268.254 62.4703C269.28 62.7463 270.129 62.7672 270.796 62.5328L270.858 62.6578L268.296 66.137Z" fill="#1C3F30"/>
<path d="M276.16 63.4731C277.144 62.6398 278.228 62.0096 279.41 61.5773C280.603 61.1502 281.806 60.9523 283.014 60.994C285.608 61.119 287.837 62.2752 289.702 64.4523C291.561 66.6346 292.353 68.9523 292.077 71.4106C291.827 73.7283 290.66 75.7752 288.577 77.5565C286.493 79.3325 284.223 80.1815 281.764 80.0981C279.181 79.9835 276.952 78.8325 275.077 76.6398C273.144 74.3742 272.348 71.994 272.681 69.494C272.973 67.2336 274.129 65.2231 276.16 63.4731ZM279.035 66.6606C278.478 67.1502 278.014 67.7127 277.639 68.3481C277.264 68.9731 277.04 69.619 276.973 70.2856C276.79 71.7127 277.212 73.0356 278.243 74.244C279.202 75.369 280.353 75.9106 281.702 75.869C282.993 75.8377 284.249 75.3065 285.473 74.2648C286.733 73.1919 287.478 72.0044 287.702 70.7023C287.921 69.3117 287.525 68.0252 286.514 66.8273C285.473 65.619 284.228 65.0356 282.785 65.0773C281.436 65.1502 280.186 65.6763 279.035 66.6606Z" fill="#1C3F30"/>
<path d="M288.1 89.7787C287.225 90.3204 286.61 90.7579 286.267 91.0912L283.912 87.3204L299.558 77.6121L301.829 81.2579L300.496 82.0912C302.397 82.7162 303.813 83.7839 304.746 85.2787C305.756 86.9141 306.006 88.5704 305.496 90.2371C304.996 91.9141 303.834 93.3204 302.017 94.4454L296.079 98.1329C294.381 99.1746 293.376 99.8256 293.058 100.091C292.751 100.352 292.569 100.56 292.517 100.716C292.475 100.867 292.433 100.997 292.392 101.112H292.329C291.881 100.247 291.548 99.6381 291.329 99.2787L290.683 98.2162C290.485 97.8933 290.194 97.4766 289.808 96.9662L297.975 91.9037C300.902 90.0808 301.819 88.2891 300.725 86.5287C299.902 85.2058 298.543 84.5287 296.642 84.4871L288.1 89.7787Z" fill="#1C3F30"/>
<path d="M296.919 111.394C295.586 108.363 295.133 105.842 295.565 103.832C295.909 103.707 296.294 103.572 296.711 103.436L297.94 103.061C298.742 102.811 299.237 102.66 299.419 102.603C299.612 102.551 299.722 102.519 299.753 102.519C299.779 102.519 299.732 102.644 299.607 102.894C299.482 103.144 299.383 103.545 299.315 104.103C299.258 104.67 299.253 105.301 299.294 105.999C299.419 107.467 299.784 108.9 300.399 110.29C301.216 112.15 302.253 112.801 303.503 112.249C303.888 112.082 304.097 111.775 304.128 111.332C304.18 110.551 304.024 109.509 303.649 108.207C303.284 106.9 303.091 105.78 303.065 104.853C303.034 103.936 303.138 103.134 303.378 102.436C303.821 101.144 304.732 100.197 306.107 99.5819C307.784 98.8475 309.383 98.9257 310.899 99.8111C312.409 100.66 313.669 102.217 314.669 104.478C315.654 106.712 315.847 108.9 315.253 111.04C314.946 111.082 314.654 111.124 314.378 111.165C313.555 111.217 312.961 111.254 312.586 111.269L311.461 111.332C311.388 111.342 311.347 111.342 311.336 111.332C311.321 111.301 311.388 111.165 311.544 110.915C312.029 109.9 312.086 108.624 311.711 107.082C311.597 106.608 311.446 106.144 311.253 105.686C310.388 103.728 309.367 103.009 308.19 103.519C307.774 103.697 307.55 104.045 307.524 104.561C307.44 105.504 307.591 106.676 307.982 108.082C308.383 109.499 308.565 110.624 308.524 111.457C308.492 112.29 308.341 113.009 308.065 113.624C307.576 114.775 306.638 115.65 305.253 116.249C303.722 116.926 302.216 116.858 300.732 116.04C299.175 115.207 297.904 113.655 296.919 111.394Z" fill="#1C3F30"/>
<path d="M306.378 132.933C304.763 131.808 303.716 130.397 303.232 128.704C302.732 126.871 302.95 125.267 303.898 123.892C304.825 122.558 306.341 121.589 308.44 120.996L315.169 119.121C317.419 118.496 318.695 118.089 319.003 117.892C319.32 117.699 319.513 117.569 319.586 117.496C319.68 118.027 319.815 118.574 319.982 119.142L320.378 120.537C320.471 120.912 320.617 121.412 320.815 122.037L311.003 124.767C308.669 125.418 307.503 126.423 307.503 127.787C307.487 128.204 307.544 128.642 307.669 129.1C308.044 130.433 308.825 131.371 310.023 131.912L322.565 128.412L323.732 132.6L308.169 136.954C307.18 137.23 306.471 137.48 306.044 137.704L304.836 133.371L306.378 132.933Z" fill="#1C3F30"/>
<path d="M309.708 147.614C308.708 147.765 308.052 147.89 307.75 147.989L307.041 143.572L332.958 139.364L333.666 143.718L309.708 147.614Z" fill="#1C3F30"/>
<path d="M312.986 161.66C313.095 163.16 313.553 164.16 314.361 164.66L314.381 164.806L310.319 165.16C309.694 164.619 309.236 163.582 308.944 162.056C308.845 161.624 308.777 161.098 308.736 160.473C308.694 159.848 308.762 159.16 308.944 158.41C309.137 157.66 309.475 157.004 309.965 156.452C310.991 155.311 312.657 154.665 314.965 154.514L322.944 153.952L322.756 151.285C323.1 151.244 323.449 151.212 323.798 151.202L326.506 151.014C326.715 150.988 326.819 150.983 326.819 150.994L327.006 153.66L332.006 153.327L332.298 157.619L327.298 157.952L327.631 162.785L323.569 163.077L323.236 158.244L316.069 158.744C314.22 158.869 313.215 159.457 313.048 160.514C312.975 160.832 312.954 161.212 312.986 161.66Z" fill="#1C3F30"/>
<path d="M309.781 181.594C308.995 179.87 308.635 178.329 308.719 176.969C308.802 175.62 309.005 174.474 309.323 173.532C309.625 172.599 310.042 171.813 310.573 171.178C311.656 169.87 313.135 169.271 315.01 169.386C316.703 169.495 318.063 170.417 319.094 172.157C320.203 174.032 320.661 176.516 320.469 179.615L320.406 180.323C320.391 180.459 320.375 180.615 320.365 180.782C320.349 180.959 320.323 181.12 320.281 181.261C322.167 181.287 323.323 180.553 323.74 179.053C323.875 178.537 323.958 177.995 323.99 177.428C324.031 176.855 324.016 176.292 323.948 175.74C323.875 175.198 323.771 174.662 323.635 174.136C323.344 172.98 322.974 172.146 322.531 171.636L322.573 171.573L326.49 171.303C327.458 173.428 327.87 175.719 327.719 178.178C327.479 182.011 325.953 184.37 323.135 185.261C322.245 185.537 321.245 185.641 320.135 185.573L313.781 185.198C312.417 185.115 311.453 185.537 310.885 186.469L308.177 183.136C308.568 182.469 309.104 181.954 309.781 181.594ZM317.115 181.094C317.198 180.771 317.245 180.448 317.26 180.115L317.302 179.407C317.469 176.808 316.995 175.12 315.885 174.344C315.563 174.105 315.219 173.974 314.844 173.948C314.469 173.933 314.135 173.98 313.844 174.094C313.552 174.219 313.292 174.433 313.073 174.74C312.698 175.323 312.469 176.219 312.385 177.428C312.313 178.636 312.536 179.782 313.052 180.865C313.177 180.849 313.307 180.849 313.448 180.865L317.115 181.094Z" fill="#1C3F30"/>
<path d="M308.95 195.753C307.939 195.53 307.189 195.42 306.7 195.42L307.637 191.087L325.637 194.983L324.742 199.17L323.2 198.816C324.127 200.608 324.413 202.363 324.054 204.087C323.637 205.972 322.663 207.342 321.137 208.191C319.606 209.035 317.794 209.238 315.7 208.795L308.867 207.316C306.924 206.899 305.757 206.67 305.367 206.628C304.966 206.597 304.695 206.618 304.554 206.691C304.403 206.774 304.273 206.837 304.158 206.878L304.117 206.837C304.398 205.92 304.585 205.253 304.679 204.837L304.929 203.628C305.012 203.264 305.106 202.764 305.2 202.128L314.596 204.17C317.955 204.889 319.851 204.233 320.283 202.191C320.617 200.66 320.117 199.222 318.783 197.878L308.95 195.753Z" fill="#1C3F30"/>
<path d="M299.294 225.791C298.503 224.109 298.597 221.947 299.565 219.312C300.513 216.755 302.06 214.963 304.211 213.937C306.388 212.88 308.784 212.833 311.399 213.791C314.065 214.776 315.951 216.385 317.065 218.625C318.216 221.01 318.263 223.645 317.211 226.52C316.461 228.546 315.378 230.088 313.961 231.145L310.003 228.937L310.065 228.812C310.899 228.531 311.513 228.13 311.919 227.604C312.597 226.781 313.112 225.901 313.461 224.958C313.805 224.01 313.961 223.218 313.919 222.583C313.888 221.958 313.732 221.364 313.44 220.812C312.826 219.729 311.8 218.916 310.357 218.375C307.774 217.427 305.758 217.697 304.315 219.187C303.826 219.697 303.461 220.302 303.211 221C302.951 221.692 302.784 222.317 302.711 222.875C302.643 223.427 302.628 223.947 302.669 224.437C302.794 225.489 303.086 226.291 303.544 226.833L303.44 226.937L299.294 225.791Z" fill="#1C3F30"/>
<path d="M291.223 224.731L291.515 226.21C291.947 228.403 293.114 230.653 295.015 232.96L296.369 234.606L313.119 235.794L310.828 240.169L299.432 238.96L307.015 247.377L304.661 251.877C304.187 250.945 303.14 249.544 301.515 247.669L296.953 242.294C291.26 235.294 288.177 230.528 287.703 228.002L291.223 224.731Z" fill="#1C3F30"/>
<path d="M92.3528 197.097C91.428 196.97 89.9231 196.916 87.8198 196.916H83.1055C82.3258 196.916 81.6278 196.934 81.0022 196.988L80.9659 196.916C81.0838 196.726 81.1473 196.5 81.1473 196.23C81.1473 195.968 81.1201 195.706 81.0747 195.435C81.0203 195.146 80.9025 194.631 80.7121 193.881C80.5126 193.14 80.2044 192.066 79.7692 190.666L77.9561 184.957L62 139.903C63.786 140.002 66.0434 140.048 68.7813 140.048C71.5374 140.048 73.2962 139.939 74.0758 139.722L86.9857 178.562L98.3 139.903C100.013 140.002 102.126 140.048 104.646 140.048C108.073 140.048 110.086 139.939 110.666 139.722L95 184.812C95 184.812 94.5014 186.493 93.5132 189.835C92.661 192.68 92.244 194.522 92.244 195.362C92.244 196.211 92.2984 196.735 92.4253 196.952L92.3528 197.097Z" fill="#1C3F30"/>
<path d="M143.392 196.916C143.754 195.814 143.936 193.222 143.936 189.148V177.261C138.977 166.404 135.813 159.621 134.435 156.92C133.075 154.229 131.932 152.097 130.989 150.525C128.016 145.521 126.212 142.649 125.586 141.926C124.979 141.186 124.362 140.553 123.737 140.048H138.532C138.841 140.626 139.267 141.475 139.802 142.577L150.209 164.435C150.69 163.234 151.261 161.897 151.914 160.425C158.151 147.057 161.306 140.264 161.378 140.048H175.558C174.107 141.231 172.312 143.688 170.191 147.418C169.538 148.529 168.885 149.794 168.232 151.212L158.514 171.372C157.426 173.784 156.492 175.961 155.721 177.912V190.16C155.721 193.005 155.903 195.254 156.265 196.916H143.392Z" fill="#1C3F30"/>
<path d="M220.468 139C225.808 139 230.368 139.93 234.139 141.782V154.861L234.067 154.933C232.444 152.476 229.062 150.851 223.913 150.056C222.408 149.821 220.504 149.694 218.183 149.694C215.862 149.694 213.587 150.128 211.366 150.995C209.135 151.862 207.304 153.091 205.854 154.68C203.098 157.788 201.72 162.222 201.72 167.976C201.72 174.678 203.469 179.664 206.978 182.934C209.897 185.68 213.768 187.053 218.582 187.053C223.995 187.053 228.392 185.897 231.782 183.584C233.015 182.771 234.049 181.742 234.901 180.513L235.046 180.585V192.544C230.667 196.184 224.765 198 217.349 198C208.646 198 201.81 195.236 196.86 189.69C192.119 184.415 189.753 177.433 189.753 168.735C189.753 159.54 192.345 152.287 197.549 146.985C202.817 141.665 210.459 139 220.468 139Z" fill="#1C3F30"/>
<path d="M266.505 196.916C262.299 196.916 259.507 196.997 258.129 197.169V139.795C258.827 139.966 260.25 140.048 262.408 140.048C264.583 140.048 267.095 140.003 269.951 139.903V186.655H278.835C281.392 186.655 283.45 186.574 285 186.402C284.801 193.077 284.71 196.537 284.71 196.772V197.205C281.899 197.006 277.203 196.916 270.603 196.916H266.505Z" fill="#1C3F30"/>
</svg>
