<svg width="200" height="90" viewBox="0 0 200 90" fill="none" xmlns="http://www.w3.org/2000/svg">
<path d="M175.308 22.9684C179.308 22.9684 183.097 23.9787 186.412 25.7695C187.161 26.1736 188.12 25.6501 188.12 24.796C188.12 24.1991 188.604 23.7215 189.197 23.7215H200V66.5451C199.726 80.688 187.837 90.0003 176.221 90.0003C162.514 90.0003 155.812 81.5697 153.693 77.8319C153.246 77.0329 153.602 76.087 154.405 75.6554L160.405 72.4778C161.4 71.9451 162.734 72.4227 163.455 73.2952C165.519 75.7839 170.103 79.2829 176.23 79.2829C182.348 79.2829 185.882 75.1227 187.389 70.8707C187.9 69.4288 186.293 68.3635 184.896 68.988C181.983 70.2829 178.741 70.9992 175.308 70.9992C162.222 70.9992 151.529 60.291 151.529 46.9838C151.529 33.6766 162.222 22.9684 175.308 22.9684ZM145.749 68.4278C145.749 69.438 144.927 70.2645 143.922 70.2645H135.302C134.553 70.2645 133.95 69.6584 133.95 68.9053C133.95 67.6931 132.444 67.0319 131.458 67.739C128.554 69.8145 125.138 71.0084 121.604 71.0084C110.263 71.0084 102.62 61.7972 102.62 49.693V25.5583C102.62 24.548 103.441 23.7215 104.446 23.7215H112.865C113.87 23.7215 114.692 24.548 114.692 25.5583V49.4175C114.692 55.6533 118.655 60.0247 124.271 60.0247C129.887 60.0247 133.95 55.5522 133.95 49.3165V25.5583C133.95 24.548 134.772 23.7215 135.777 23.7215H145.739V68.4278H145.749ZM93.077 0C94.5929 0 95.8165 1.23062 95.8165 2.75511V67.5094C95.8165 69.0339 94.5929 70.2645 93.077 70.2645H86.7579C85.242 70.2645 84.0184 69.0339 84.0184 67.5094V2.75511C84.0184 1.23062 85.242 0 86.7579 0H93.077ZM25.1464 39.9124C25.1647 39.6461 25.2103 39.2695 25.3016 38.8287C25.4751 37.9471 25.8221 36.7532 26.5344 35.5501C27.9863 33.0981 30.8537 30.7654 36.2962 30.7654H53.135C57.6187 30.7654 60.7234 29.8287 62.6502 28.1205C64.577 26.4215 65.5815 24.0521 65.5815 20.6817C65.5815 17.3021 64.577 14.8409 62.6868 13.1419C60.8056 11.4429 57.6917 10.497 53.135 10.497H32.2874C30.4245 10.497 27.8859 9.49595 26.6531 8.14595C25.4203 6.79594 24.772 5.10614 24.3793 3.6643C24.1145 2.70919 24.1419 1.77246 24.635 1.04694C25.1373 0.303062 25.9682 0 26.8084 0H53.2263C57.8287 0 61.9654 0.661227 65.6363 2.00205C69.1246 3.2694 71.9646 5.31737 74.1562 8.12758L74.5854 8.69697C76.85 11.847 77.9549 15.796 77.9549 20.6817C77.9549 25.5491 76.8774 29.5899 74.631 32.7124C72.4303 35.7889 69.4442 38.0114 65.7368 39.3614C62.0658 40.7022 57.8926 41.3634 53.2263 41.3634H38.3873C37.7299 41.3634 37.2002 41.8961 37.2002 42.5573L37.3637 67.6104C37.3637 69.0707 36.1948 70.2645 34.7246 70.2645H27.9215C26.4696 70.2645 25.119 69.1747 25.119 67.7053V40.3624M175.755 34.3379C168.843 34.3379 163.775 39.6461 163.775 47.0849C163.775 54.5237 168.751 59.9329 175.755 59.9329C182.759 59.9329 187.736 54.6247 187.736 47.0849C187.736 39.545 182.668 34.3379 175.755 34.3379Z" fill="black"/>
<path d="M14.3824 6.13094C14.949 4.62302 17.051 4.62302 17.6176 6.13094C20.3684 13.4969 23.5122 16.6316 30.8691 19.3824C32.377 19.949 32.377 22.051 30.8691 22.6176C23.5031 25.3684 20.3684 28.5122 17.6176 35.8691C17.051 37.377 14.949 37.377 14.3824 35.8691C11.6316 28.5031 8.48779 25.3776 1.13094 22.6176C-0.376981 22.051 -0.376981 19.949 1.13094 19.3824C8.49693 16.6316 11.6316 13.4878 14.3824 6.13094Z" fill="#29FB0C"/>
</svg>
