<?xml version="1.0" encoding="UTF-8"?>
<svg id="Layer_2" data-name="Layer 2" xmlns="http://www.w3.org/2000/svg" viewBox="0 0 519.61 155.64">
  <defs>
    <style>
      .cls-1 {
        fill: #00e5c9;
        stroke-width: 0px;
      }
    </style>
  </defs>
  <g id="Layer_1-2" data-name="Layer 1">
    <g>
      <path class="cls-1" d="M151,66.59l-25.89-26.23c-.43-.43-.97-.73-1.57-.85-.59-.12-1.21-.06-1.76.17-.56.24-1.03.63-1.37,1.14-.33.51-.51,1.11-.51,1.72v38.96c0,7.23-2.14,12.99-6.35,17.13-6.27,6.13-14.98,6.45-16.73,6.45h-12.85c-.81,0-1.59.32-2.16.91s-.9,1.37-.9,2.18v44.36c0,.56.15,1.11.43,1.6.29.48.7.88,1.19,1.14.49.27,1.05.39,1.6.36.56-.03,1.09-.22,1.55-.53.73-.53,1.42-1.11,2.05-1.76l63.29-64.06c2.96-3.01,4.62-7.09,4.62-11.34s-1.66-8.32-4.62-11.34"/>
      <path class="cls-1" d="M109.78,94.3c3.08-3.03,4.26-7.41,4.26-13.03V30.47c0-.82.06-1.61-.52-2.18L87.75,2.28c-.64-.64-1.33-1.23-2.06-1.75-.46-.32-1-.5-1.56-.53-.56-.03-1.12.09-1.61.36-.49.27-.91.66-1.19,1.15-.28.48-.44,1.04-.43,1.6v92.96c0,.82.33,1.61.9,2.18.57.58,1.36.91,2.17.91h12.7c.15,0,8,.15,13.16-4.89"/>
      <path class="cls-1" d="M50.07,56.29c4.72-4.63,11.44-4.47,11.74-4.45h10.17c.81,0,1.59-.32,2.17-.91.57-.58.9-1.37.9-2.18V3.1s-.24-1.12-.53-1.6c-.29-.48-.7-.88-1.2-1.14-.49-.27-1.05-.39-1.61-.35-.56.03-1.09.22-1.56.54-.74.52-1.43,1.11-2.07,1.75L24.18,46.62c-.43.43-.72.98-.83,1.58-.12.6-.06,1.22.17,1.78.23.56.62,1.05,1.12,1.39s1.09.52,1.7.47h9.03c.7.04,1.38.27,1.94.71.55.44.92,1.06,1.06,1.76.06.4.03.81-.09,1.2-.12.39-.3.75-.57,1.06-.26.31-.59.55-.96.73-.36.17-.76.26-1.17.37H14.61c-.81-.11-1.59.22-2.17.8l-7.81,7.88c-2.97,3.01-4.64,7.09-4.64,11.34s1.67,8.33,4.64,11.34l35.77,36.12c.43.43.97.73,1.57.85.59.12,1.21.06,1.77-.17.56-.24,1.04-.63,1.38-1.14.33-.51.29-1.72.29-1.72v-54.79c0-4.97,1.88-8.91,4.82-11.78"/>
      <path class="cls-1" d="M61.77,57.81c-.14,0-4.81-.07-7.82,2.9-1.79,1.76-2.69,4.34-2.69,7.68v66.63c0,.4.08.8.23,1.18s.38.71.67,1l15.99,16.14c.64.64,1.34,1.23,2.07,1.76.47.32,1,.5,1.56.53.56.03,1.12-.09,1.61-.36.49-.27.91-.66,1.2-1.14.29-.48.44-1.03.44-1.6V60.91c0-.82-.32-1.61-.9-2.18-.57-.58-1.36-.91-2.17-.91h-10.2Z"/>
    </g>
    <g>
      <path class="cls-1" d="M177.18,29.08c9.24,0,18.76,0,28.26.05.79,0,2.12.29,2.2.66.23,1.26.2,2.55-.06,3.8-.06.3-1.19.52-1.84.53-3.45.05-10.34.12-10.34.12h-1.88v38c0,2.68-2.15,4.02-4.55,2.77-.39-.25-.67-.65-.78-1.11-.12-.63-.15-1.28-.12-1.93v-38.12h-10.9v-4.76h0Z"/>
      <path class="cls-1" d="M270.81,47.34c1.58-1.32,3.15-2.52,4.59-3.87,1.21-1.22,2.71-2.1,4.35-2.58,1.64-.48,3.36-.53,5.03-.15,5.03.98,9.17,3.26,11.28,8.17.88,2.19,1.36,4.52,1.41,6.88.2,5.71.08,11.45.07,17.17,0,2.01-.22,2.15-2.78,2.14-2.14,0-2.25-.1-2.28-2.1-.07-6.09,0-12.2-.28-18.29-.17-2.56-1.33-4.96-3.22-6.66-1.89-1.7-4.37-2.57-6.89-2.42-.94.08-1.83.42-2.59,1-2.08,1.61-4.09,3.28-6.05,5.01-.42.42-.67,1-.7,1.61,0,6.64,0,13.28.1,19.92,0,1.51-.59,2.08-2,1.94h-.95c-1.87,0-2.12-.24-2.12-2.15,0-5.18.1-10.37-.07-15.55-.04-2.19-.45-4.37-1.21-6.43-1.35-3.42-6.02-5.89-9.57-5.34-.88.22-1.69.64-2.37,1.24-1.69,1.31-3.25,2.78-4.94,4.07-.52.37-.95.87-1.22,1.45-.28.59-.4,1.23-.36,1.87.04,6.09.04,12.19,0,18.3,0,.8-.29,2.18-.64,2.25-1.29.2-2.6.2-3.88,0-.2,0-.47-.8-.47-1.25,0-7.29,0-14.58.13-21.87.09-1.07.56-2.06,1.32-2.79,2.68-2.41,5.46-4.82,8.33-7.01,2.45-1.89,5.33-1.54,8.11-.95,4.26.91,6.57,2.41,9.84,6.43"/>
      <path class="cls-1" d="M506.46,75.65c-3.15-.48-5.65-.8-8.14-1.29-.43-.11-.83-.32-1.16-.62-.33-.29-.6-.67-.77-1.09-.17-.42-.24-.87-.21-1.32.03-.45.17-.88.4-1.27.26-.38,1.2-.47,1.8-.4,2.42.29,4.81.93,7.23.98,2-.02,3.99-.35,5.89-.98.88-.24,1.66-.79,2.2-1.53.54-.75.83-1.66.8-2.59.07-2.08-1.18-3.21-2.81-3.89-1.63-.68-3.62-1.17-5.42-1.8-2.03-.6-4-1.34-5.93-2.2-6.22-3.18-4.63-12.22-.05-14.98,2.02-1.32,4.37-2.02,6.77-2.01,3.05.16,6.09.49,9.11,1,1.17.17,1.57,1.8,1.15,3.67-.31,1.3-1.27.62-1.95.58-2.79-.17-5.59-.63-8.36-.56-1.46.16-2.87.68-4.1,1.51-2.03,1.18-2.55,5.47.45,6.65,2.02.8,4.1,1.39,6.11,2.21,2.44.99,5.15,1.69,7.17,3.27,4.97,3.88,3.45,12.48-2.56,14.86-2.57,1-5.41,1.31-7.62,1.82h0Z"/>
      <path class="cls-1" d="M490.02,35.41v4.31c0,.85-.39,1.19-1.2,1.25-2.5.19-2.69,0-2.69-2.51v-7.17c0-1.54.17-1.71,1.61-1.71h1.07c.85-.05,1.21.41,1.21,1.27v4.57"/>
      <path class="cls-1" d="M233.3,57.85c0-7.23-4.3-12.36-11.18-12.36s-11.17,5.15-11.17,12.36,4.3,12.3,11.17,12.3,11.18-5.08,11.18-12.3ZM205.25,57.98c0-9.96,7.29-17.67,17.08-17.67s16.65,7.7,16.65,17.67-7.29,17.6-17.08,17.6-16.67-7.63-16.67-17.6h0Z"/>
      <path class="cls-1" d="M331.26,57.85c0-7.23-4.3-12.36-11.17-12.36s-11.17,5.15-11.17,12.36,4.3,12.3,11.17,12.3,11.17-5.08,11.17-12.3ZM303.22,57.98c0-9.96,7.29-17.67,17.07-17.67s16.67,7.7,16.67,17.67-7.29,17.6-17.08,17.6-16.67-7.63-16.67-17.6h0Z"/>
      <path class="cls-1" d="M364.15,46.03c-2-.5-4.05-.74-6.11-.73-2.55-.11-5.08.5-7.32,1.75v27.87c-.96.21-1.93.3-2.92.29-.98,0-1.96-.09-2.92-.29v-30.45c2.78-2.38,7.97-4.63,13.51-4.63,2.44-.04,4.87.35,7.18,1.16.13,1.81-.38,3.6-1.42,5.06"/>
      <path class="cls-1" d="M389.86,46.01c-2.01-.5-4.06-.74-6.13-.73-2.56-.1-5.09.5-7.33,1.75v27.9c-.96.21-1.94.3-2.92.29-.98,0-1.96-.09-2.91-.29v-30.49c2.78-2.39,7.97-4.64,13.52-4.64,2.44-.04,4.88.36,7.19,1.16.12,1.81-.39,3.6-1.42,5.07"/>
      <path class="cls-1" d="M421.29,57.85c0-7.23-4.3-12.36-11.17-12.36s-11.18,5.15-11.18,12.36,4.31,12.3,11.18,12.3,11.17-5.13,11.17-12.3ZM393.25,57.85c0-9.96,7.29-17.67,17.07-17.67s16.65,7.7,16.65,17.67-7.28,17.6-17.07,17.6-16.65-7.63-16.65-17.6Z"/>
      <path class="cls-1" d="M479.25,41.49c-2.91,11.8-7.7,24.38-12.63,33.01-.94.2-1.89.29-2.85.28-.86,0-1.72-.08-2.56-.28-2.36-4.91-4.42-9.96-6.18-15.13-1.46,5.23-3.43,10.3-5.9,15.13-1,.2-2.03.29-3.05.28-.88,0-1.77-.08-2.63-.28-5.52-10.11-9.37-21.06-12.36-33.01,1.18-.31,2.39-.45,3.61-.42.75,0,1.48.06,2.23.15,2.3,9.48,5.43,18.73,9.37,27.64l.14.56c.07-.21.13-.36.2-.56,2.43-5.47,4.47-11.1,6.11-16.87-1.04-3.39-2.01-6.92-2.98-10.44,1.18-.31,2.4-.45,3.61-.42.74,0,1.48.06,2.21.15,2.5,10.6,5.41,20.42,8.61,27.64l.14.56c.06-.21.13-.36.2-.56,3.96-8.87,7.03-18.13,9.16-27.64.69-.08,1.39-.13,2.08-.15,1.17-.02,2.34.12,3.47.42"/>
      <path class="cls-1" d="M366.31,110.86c.18-2.51-.61-5-2.19-6.94-1.59-1.94-3.85-3.18-6.31-3.45-2.44-.35-4.49.06-6.26,1.87-.88.94-1.87,1.76-2.95,2.45-2.31,1.4-3.02,3.39-2.73,6,.22,2.03.04,4.13.4,6.13.88,4.86,4.38,7.86,9.23,8.29,3.6.31,7.22-.03,10.71-.98,1.73-.45,1.89-.3,1.93,1.55,0,2.58-.11,2.88-2.54,3.45-5.4,1.27-10.82,1.74-16.1-.49-5.28-2.24-8.29-6.43-8.57-12.31-.17-3.13-.17-6.27,0-9.4.1-1.27.63-2.46,1.5-3.36,2.53-2.39,5.18-4.63,7.95-6.71,3.15-2.41,6.81-1.78,10.26-.8,8.02,2.24,11.6,8.62,10.78,17.24,0,.27-.06.54-.16.8-.1.25-.26.48-.46.67-.2.19-.42.33-.68.42-.25.09-.52.13-.79.12-5.72,0-11.46.04-17.19,0-.42,0-.99-.68-1.19-1.16-.12-.58-.15-1.17-.07-1.76,0-1.16.52-1.61,1.66-1.61h13.75"/>
      <path class="cls-1" d="M193.91,89.11h-14.7c-2.05,0-2.17-.21-2.16-2.78,0-2.12.14-2.28,2.15-2.28h18.27c1.25,0,2.27,1.02,2.27,2.27v28.19c0,1.42-.13,2.82-.38,4.21-1.2,6.74-5.16,10.5-12.06,11.55-3.65.53-7.36.35-10.95-.52-1.39-.33-2.05-.99-1.9-2.42.04-.43.04-.88,0-1.31-.15-1.52.62-1.62,1.86-1.47,2.58.36,5.18.56,7.78.58,6.4-.12,9.79-3.3,9.98-9.75.26-8.46.14-16.97.18-25.41-.04-.27-.1-.55-.18-.81"/>
      <path class="cls-1" d="M302.47,117.51v-9.49c-.05-1.02.14-2.05.57-2.98.43-.93,1.09-1.73,1.9-2.35,1.88-1.41,3.68-2.92,5.4-4.53,2.86-2.79,6.17-3.27,9.88-2.58,7.72,1.43,12.39,7,12.43,14.99.04,5.72,0,11.46,0,17.17,0,1.96-.16,2.1-2.1,2.12q-2.95,0-2.95-2.93c0-5.4.06-10.8-.08-16.2-.16-6.07-4.22-10.22-10.05-10.32-1.14.04-2.23.42-3.15,1.08-1.86,1.32-3.52,2.93-5.33,4.36-.49.37-.87.86-1.12,1.42s-.36,1.18-.31,1.79c.04,6.11,0,12.21,0,18.32,0,2.47,0,2.47-2.55,2.47-2.37,0-2.51-.14-2.14-2.57v-9.79"/>
      <path class="cls-1" d="M272.51,107.95v10.05c.33.81.17,1.62-.15,2.36-.33.74-.83,1.39-1.46,1.89-2.51,2.08-4.99,4.19-7.52,6.25-2.53,2.06-5.34,1.85-8.2,1.33-7.23-1.31-12.39-6.48-12.52-14.26-.1-6.05,0-12.1-.06-18.15,0-1.39.59-1.99,1.94-1.87.37.04.75.04,1.12,0,1.51-.16,2.03.52,2.03,2.05,0,5.89-.05,11.78.2,17.67.25,5.89,4.35,9.64,10.04,9.75.99,0,1.96-.29,2.78-.85,2.11-1.55,4.12-3.23,6.03-5.03.61-.71.94-1.62.93-2.56.08-6.21,0-12.42.08-18.64,0-.8.4-2.1.79-2.16,1.29-.15,2.59-.08,3.86.2.2,0,.37.94.49,1.45v10.53h-.11s-.28,0-.28,0Z"/>
      <path class="cls-1" d="M409.3,113.64c0,5.79.26,11.58-.06,17.33-.23,3.43-1.7,6.67-4.14,9.06-2.44,2.4-5.65,3.8-9.04,3.92-2.17.08-4.34,0-6.5-.26-.31-.07-.6-.21-.84-.42-.24-.21-.43-.47-.55-.77-.12-1.05-.06-2.12.19-3.15,0-.15.96-.16,1.47-.19,2.27-.08,4.6.17,6.79-.28,4.51-.95,7.24-4.33,7.57-9.01.18-2.52.22-5.07.22-7.61v-24.47c0-2.34.06-2.41,2.48-2.41s2.57.15,2.57,2.34v15.88h0"/>
      <path class="cls-1" d="M400.38,124.49c.08,1.18.06,2.37-.06,3.56-.1.31-.26.59-.49.82-.22.23-.5.41-.8.52-8.75,2.08-19.1-2.41-19.45-13.71-.2-6.14,0-12.31-.08-18.48,0-1.43.57-1.97,1.9-1.87h.95c1.99,0,2.21.22,2.21,2.21v14.41c-.03,1.3.03,2.58.16,3.87.89,7.07,6.46,9.69,12.19,9.2,1.04-.09,2.08-.33,3.45-.56"/>
      <path class="cls-1" d="M231.36,112.6c0-7.23-4.31-12.36-11.18-12.36s-11.17,5.16-11.17,12.36,4.3,12.3,11.17,12.3,11.18-5.08,11.18-12.3ZM203.32,112.6c0-9.96,7.29-17.67,17.08-17.67s16.65,7.7,16.65,17.67-7.29,17.6-17.07,17.6-16.67-7.63-16.67-17.6Z"/>
      <path class="cls-1" d="M298.03,100.79c-2.01-.5-4.06-.74-6.13-.73-2.55-.1-5.09.5-7.33,1.75v27.9c-.96.21-1.94.3-2.92.29-.98,0-1.96-.09-2.91-.29v-30.48c2.78-2.39,7.97-4.64,13.52-4.64,2.44-.04,4.88.36,7.19,1.16.12,1.81-.39,3.6-1.42,5.07"/>
    </g>
  </g>
</svg>