<svg width="307" height="307" viewBox="91.724 94.198 307.218 307.218" fill="none" xmlns="http://www.w3.org/2000/svg">
<g clip-path="url(#clip_circle)">
<circle cx="245.333" cy="247.807" r="153.609" fill="#0f2419"/>
<g transform="translate(245.333 247.807) scale(0.875) translate(-245.333 -247.807)">
<mask id="mask0_1_2" style="mask-type:luminance" maskUnits="userSpaceOnUse" x="91" y="94" width="308" height="308">
<path d="M91.7239 94.1979H398.724V401.198H91.7239V94.1979Z" fill="white"/>
</mask>
<g mask="url(#mask0_1_2)">
<mask id="mask1_1_2" style="mask-type:luminance" maskUnits="userSpaceOnUse" x="91" y="94" width="308" height="308">
<path d="M245.333 94.1979C160.5 94.1979 91.7239 162.969 91.7239 247.807C91.7239 332.646 160.5 401.417 245.333 401.417C330.172 401.417 398.943 332.646 398.943 247.807C398.943 162.969 330.172 94.1979 245.333 94.1979Z" fill="white"/>
</mask>
<g mask="url(#mask1_1_2)">
<path d="M245.333 94.1979C160.5 94.1979 91.7239 162.969 91.7239 247.807C91.7239 332.646 160.5 401.417 245.333 401.417C330.172 401.417 398.943 332.646 398.943 247.807C398.943 162.969 330.172 94.1979 245.333 94.1979Z" stroke="white" stroke-width="20"/>
</g>
</g>
<path d="M112.51 342.323C111.75 342.844 110.943 343.292 110.099 343.656C109.25 344.026 108.375 344.307 107.474 344.51C106.573 344.708 105.661 344.823 104.734 344.844C103.812 344.87 102.896 344.807 101.984 344.656C101.073 344.505 100.187 344.271 99.3229 343.948C98.4531 343.625 97.6302 343.224 96.8385 342.745C96.0521 342.266 95.3125 341.714 94.6302 341.094C93.9479 340.469 93.3281 339.792 92.776 339.052C91.3594 336.792 89.9948 334.505 88.6771 332.188C87.3646 329.87 86.099 327.526 84.8854 325.151C83.6771 322.781 82.5156 320.38 81.4114 317.958C80.3073 315.531 79.2552 313.083 78.2552 310.609C77.2604 308.141 76.3177 305.646 75.4323 303.135C74.5469 300.62 73.7187 298.089 72.9427 295.542C72.1667 292.99 71.4531 290.422 70.7917 287.844C70.1302 285.26 69.5312 282.667 68.9844 280.057C68.4427 277.448 67.9531 274.828 67.526 272.198C67.099 269.568 66.7292 266.927 66.4167 264.281C66.1042 261.635 65.8489 258.984 65.6562 256.328C65.4635 253.667 65.3281 251.005 65.2552 248.344C65.1771 245.677 65.1614 243.016 65.2031 240.349C65.2448 237.687 65.349 235.026 65.5104 232.365C65.6719 229.703 65.8906 227.047 66.1667 224.401C66.4479 221.75 66.7812 219.104 67.1771 216.469C67.5729 213.833 68.0312 211.208 68.5417 208.594C69.0521 205.979 69.625 203.375 70.25 200.786C70.8802 198.198 71.5625 195.62 72.3073 193.062C73.0469 190.505 73.849 187.964 74.7031 185.437C75.5573 182.911 76.4687 180.411 77.4323 177.927C78.401 175.443 79.4219 172.979 80.4948 170.542C81.5729 168.104 82.6979 165.693 83.8802 163.302C85.0625 160.917 86.2969 158.552 87.5833 156.219C88.875 153.885 90.2135 151.583 91.599 149.307C92.9896 147.036 94.4271 144.792 95.9167 142.583C97.4062 140.37 98.9427 138.198 100.531 136.052C102.115 133.911 103.745 131.807 105.427 129.734C107.104 127.667 108.828 125.635 110.599 123.641C112.365 121.651 114.177 119.698 116.036 117.786C117.891 115.87 119.786 114 121.724 112.172C123.667 110.344 125.641 108.557 127.661 106.818C129.677 105.078 131.734 103.385 133.828 101.734C135.922 100.083 138.047 98.4844 140.214 96.9271C142.375 95.3698 144.573 93.8646 146.807 92.4062C149.036 90.9531 151.297 89.5417 153.594 88.1875C155.885 86.8281 158.208 85.526 160.557 84.2708C162.911 83.0156 165.286 81.8125 167.693 80.6667C170.099 79.5156 172.526 78.4219 174.979 77.3802C177.432 76.3437 179.911 75.3542 182.406 74.4271C184.901 73.4948 187.422 72.6198 189.953 71.8021C192.49 70.9792 195.042 70.2187 197.615 69.5104C200.182 68.8073 202.766 68.1562 205.365 67.5677C207.964 66.9739 210.573 66.4427 213.198 65.9687C215.818 65.4896 218.448 65.0729 221.089 64.7135C223.729 64.3594 226.38 64.0573 229.031 63.8177C231.688 63.5729 234.344 63.3906 237.005 63.2708C239.667 63.1458 242.333 63.0833 244.995 63.0781C247.661 63.0729 250.328 63.125 252.99 63.2396C255.651 63.3542 258.307 63.526 260.964 63.7552C263.62 63.9896 266.266 64.276 268.911 64.625C271.552 64.9739 274.182 65.3854 276.807 65.8489C279.432 66.3125 282.047 66.8385 284.646 67.4219C287.245 68 289.833 68.6406 292.406 69.3385C294.979 70.0312 297.531 70.7864 300.073 71.5937C302.609 72.4062 305.13 73.2708 307.63 74.1927C310.13 75.1146 312.609 76.0885 315.068 77.1198C317.526 78.151 319.958 79.2396 322.365 80.3802C324.776 81.5156 327.156 82.7083 329.516 83.9531C331.87 85.2031 334.198 86.5 336.495 87.8437C338.792 89.1927 341.062 90.5937 343.297 92.0417C345.536 93.4896 347.74 94.9896 349.906 96.5364C352.078 98.0833 354.214 99.6771 356.312 101.318C358.411 102.964 360.474 104.651 362.495 106.38C364.521 108.115 366.505 109.891 368.453 111.714C370.396 113.536 372.302 115.396 374.161 117.302C376.026 119.208 377.844 121.156 379.62 123.141C381.401 125.13 383.13 127.151 384.818 129.219C386.505 131.281 388.141 133.38 389.734 135.516C391.328 137.651 392.875 139.823 394.37 142.026C395.87 144.229 397.318 146.469 398.714 148.74C400.109 151.005 401.458 153.307 402.755 155.635C404.052 157.964 405.292 160.318 406.484 162.703C407.677 165.089 408.813 167.495 409.896 169.932C410.984 172.365 412.01 174.823 412.99 177.302C413.964 179.781 414.88 182.281 415.745 184.802C416.609 187.323 417.417 189.865 418.172 192.417C418.922 194.974 419.615 197.547 420.255 200.135C420.891 202.724 421.469 205.323 421.995 207.938C422.516 210.552 422.979 213.172 423.385 215.807C423.792 218.443 424.135 221.083 424.427 223.729C424.714 226.38 424.943 229.036 425.115 231.693C425.286 234.354 425.396 237.016 425.448 239.682C425.5 242.344 425.495 245.01 425.427 247.672C425.365 250.339 425.24 253 425.057 255.656C424.87 258.318 424.63 260.969 424.328 263.615C424.026 266.266 423.667 268.906 423.245 271.536C422.828 274.167 422.349 276.786 421.818 279.401C421.281 282.01 420.688 284.609 420.036 287.193C419.385 289.776 418.682 292.344 417.917 294.896C417.151 297.453 416.333 299.984 415.453 302.5C414.578 305.021 413.646 307.516 412.656 309.99C411.672 312.464 410.63 314.917 409.531 317.344C408.438 319.776 407.286 322.177 406.083 324.557C404.88 326.932 403.625 329.281 402.318 331.604C401.01 333.927 399.651 336.219 398.245 338.484C397.693 339.224 397.078 339.906 396.396 340.531C395.719 341.156 394.984 341.708 394.198 342.193C393.406 342.677 392.583 343.078 391.719 343.406C390.854 343.729 389.969 343.969 389.057 344.125C388.146 344.276 387.229 344.344 386.307 344.323C385.38 344.302 384.469 344.193 383.568 343.995C382.667 343.797 381.792 343.516 380.943 343.151C380.094 342.786 379.286 342.349 378.521 341.828L355.318 324.646C354.495 324.109 353.734 323.495 353.036 322.802C352.339 322.109 351.719 321.354 351.172 320.531C350.63 319.714 350.177 318.849 349.807 317.932C349.443 317.021 349.172 316.083 349 315.115C348.823 314.146 348.75 313.172 348.776 312.187C348.802 311.203 348.927 310.234 349.151 309.276C349.375 308.318 349.693 307.396 350.104 306.5C350.516 305.609 351.016 304.766 351.599 303.974C352.922 301.661 354.172 299.302 355.344 296.906C356.51 294.505 357.604 292.073 358.615 289.604C359.625 287.135 360.552 284.635 361.401 282.104C362.25 279.573 363.01 277.016 363.693 274.437C364.37 271.859 364.969 269.26 365.479 266.641C365.99 264.021 366.411 261.385 366.75 258.74C367.089 256.094 367.339 253.437 367.505 250.776C367.667 248.115 367.745 245.448 367.734 242.776C367.729 240.109 367.63 237.443 367.448 234.781C367.26 232.12 366.99 229.469 366.635 226.823C366.276 224.177 365.833 221.552 365.302 218.932C364.771 216.318 364.156 213.724 363.458 211.151C362.76 208.573 361.979 206.026 361.109 203.5C360.245 200.979 359.297 198.484 358.266 196.021C357.24 193.562 356.13 191.135 354.943 188.745C353.755 186.354 352.49 184.005 351.151 181.703C349.807 179.396 348.391 177.135 346.906 174.922C345.417 172.703 343.854 170.542 342.224 168.432C340.594 166.318 338.896 164.26 337.13 162.26C335.365 160.26 333.536 158.318 331.646 156.437C329.755 154.557 327.802 152.74 325.792 150.984C323.781 149.229 321.714 147.542 319.594 145.922C317.474 144.307 315.302 142.755 313.078 141.281C310.854 139.802 308.589 138.401 306.271 137.073C303.958 135.745 301.604 134.495 299.208 133.318C296.812 132.146 294.38 131.047 291.911 130.031C289.443 129.021 286.948 128.083 284.417 127.234C281.891 126.38 279.339 125.615 276.755 124.927C274.177 124.24 271.578 123.641 268.964 123.125C266.344 122.609 263.714 122.182 261.068 121.839C258.417 121.495 255.766 121.24 253.104 121.073C250.438 120.901 247.771 120.818 245.104 120.823C242.438 120.828 239.771 120.922 237.109 121.099C234.448 121.281 231.792 121.547 229.146 121.901C226.505 122.25 223.875 122.693 221.255 123.214C218.641 123.74 216.042 124.349 213.469 125.047C210.891 125.74 208.339 126.516 205.818 127.38C203.292 128.24 200.797 129.182 198.333 130.208C195.87 131.234 193.438 132.339 191.047 133.521C188.656 134.703 186.307 135.964 184 137.302C181.687 138.635 179.427 140.047 177.208 141.531C174.99 143.021 172.828 144.573 170.708 146.203C168.594 147.828 166.536 149.521 164.531 151.281C162.526 153.047 160.583 154.87 158.698 156.76C156.812 158.646 154.99 160.594 153.234 162.604C151.474 164.609 149.786 166.672 148.161 168.792C146.542 170.911 144.99 173.078 143.51 175.297C142.026 177.516 140.62 179.781 139.286 182.094C137.953 184.406 136.698 186.76 135.521 189.151C134.344 191.547 133.245 193.979 132.224 196.443C131.203 198.906 130.266 201.406 129.406 203.932C128.552 206.458 127.776 209.01 127.089 211.589C126.396 214.167 125.792 216.766 125.276 219.38C124.755 222 124.318 224.63 123.974 227.276C123.625 229.922 123.365 232.573 123.187 235.24C123.016 237.901 122.927 240.568 122.927 243.234C122.927 245.901 123.016 248.568 123.187 251.229C123.365 253.891 123.625 256.547 123.974 259.193C124.323 261.839 124.755 264.469 125.276 267.089C125.797 269.703 126.401 272.302 127.089 274.88C127.781 277.458 128.552 280.01 129.411 282.536C130.266 285.062 131.208 287.557 132.224 290.026C133.245 292.49 134.344 294.922 135.526 297.312C136.703 299.708 137.958 302.057 139.292 304.37C139.88 305.161 140.38 306 140.797 306.891C141.214 307.781 141.536 308.703 141.76 309.661C141.99 310.62 142.12 311.589 142.146 312.573C142.177 313.557 142.104 314.531 141.932 315.5C141.766 316.469 141.495 317.406 141.135 318.323C140.771 319.234 140.318 320.104 139.781 320.927C139.24 321.75 138.62 322.505 137.927 323.203C137.234 323.896 136.474 324.516 135.651 325.057L112.51 342.323Z" fill="#0F2419"/>
<path d="M116.024 313.955C117.597 315.012 118.69 316.142 119.315 317.351C119.93 318.559 120.336 319.653 120.545 320.622C120.753 321.58 120.805 322.476 120.69 323.309C120.43 324.976 119.456 326.241 117.774 327.101C116.263 327.877 114.623 327.778 112.857 326.809C110.94 325.757 109.274 323.851 107.857 321.101L107.545 320.455C107.492 320.33 107.43 320.195 107.357 320.038C107.274 319.887 107.206 319.741 107.149 319.601C105.524 320.533 104.93 321.747 105.357 323.247C105.482 323.762 105.68 324.278 105.94 324.788C106.206 325.288 106.513 325.762 106.857 326.205C107.19 326.632 107.555 327.038 107.94 327.413C108.789 328.257 109.534 328.793 110.17 329.017L110.149 329.101L106.92 331.33C105.003 329.981 103.482 328.215 102.357 326.038C100.597 322.622 100.701 319.809 102.67 317.601C103.295 316.908 104.102 316.304 105.086 315.788L110.753 312.872C111.961 312.247 112.565 311.387 112.565 310.288L116.628 311.788C116.628 312.57 116.43 313.288 116.024 313.955ZM109.982 318.122C110.065 318.445 110.185 318.747 110.336 319.038L110.67 319.663C111.867 321.986 113.138 323.195 114.482 323.288C114.873 323.32 115.242 323.247 115.586 323.08C115.92 322.903 116.185 322.684 116.378 322.434C116.576 322.184 116.685 321.882 116.711 321.517C116.727 320.809 116.461 319.924 115.92 318.851C115.367 317.767 114.586 316.903 113.586 316.247C113.492 316.304 113.378 316.366 113.253 316.434L109.982 318.122Z" fill="white"/>
<path d="M91.6751 299.717L90.4667 294.884L101.217 287.801L88.4251 286.676L87.2584 281.947L106.883 284.551L107.758 288.072L91.6751 299.717Z" fill="white"/>
<path d="M95.7774 276.308C94.418 276.449 93.1315 276.345 91.9232 275.996C90.7044 275.652 89.6107 275.1 88.6524 274.35C86.6003 272.715 85.4232 270.423 85.1315 267.475C84.8711 264.975 85.4857 262.887 86.9857 261.204C88.4336 259.569 90.3607 258.631 92.7774 258.392C93.694 258.298 94.3294 258.303 94.6732 258.413C95.1211 259.538 95.5221 261.892 95.8815 265.475L96.5274 271.663C97.7253 271.236 98.6211 270.428 99.2149 269.246C99.7982 268.053 100.001 266.574 99.819 264.808C99.6263 262.949 99.1315 261.387 98.3399 260.121C98.1211 259.777 97.9232 259.532 97.7565 259.392C98.2565 259.35 98.7669 259.329 99.2774 259.329L102.027 259.204C102.736 260.053 103.309 261.449 103.736 263.392C103.876 263.991 103.965 264.558 104.007 265.1C104.314 268.058 103.704 270.595 102.173 272.704C100.632 274.829 98.5013 276.032 95.7774 276.308ZM92.2149 263.163C89.7565 263.902 88.6419 265.392 88.8607 267.642C89.043 269.407 89.944 270.678 91.569 271.454C92.069 271.694 92.6055 271.85 93.1732 271.933C93.1628 271.657 93.1419 271.308 93.1107 270.892L92.9857 269.6C92.9596 269.173 92.9232 268.756 92.8815 268.35L92.7774 267.371C92.7253 266.777 92.6524 266.183 92.569 265.6L92.3607 264.183C92.319 263.808 92.2721 263.47 92.2149 263.163Z" fill="white"/>
<path d="M101.22 248.215C102.236 248.272 102.892 248.288 103.199 248.256L102.97 252.652L77.8035 251.402L78.0327 247.069L86.1785 247.465C85.0952 245.913 84.5952 244.335 84.6785 242.736C84.7775 240.751 85.5067 239.194 86.866 238.069C88.2306 236.975 89.9858 236.475 92.1369 236.569L99.116 236.923C101.106 237.022 102.304 237.048 102.72 237.006C103.121 236.965 103.376 236.902 103.491 236.819C103.616 236.725 103.731 236.642 103.845 236.569L103.908 236.59C103.767 237.548 103.689 238.246 103.679 238.673L103.616 239.923C103.585 240.314 103.58 240.829 103.595 241.465L93.4077 240.965C91.7827 240.881 90.5639 241.173 89.741 241.84C89.1317 242.355 88.8035 243.079 88.7619 244.006C88.6942 245.381 89.4285 246.621 90.9702 247.715L101.22 248.215Z" fill="white"/>
<path d="M81.2562 228.169C79.9541 227.002 78.8291 225.83 77.8812 224.648L81.4229 221.377C81.9802 221.976 82.5166 222.539 83.0271 223.065C83.0271 223.065 83.5844 223.617 84.6937 224.711L81.2562 228.169ZM103.381 227.065C104.376 227.221 105.037 227.304 105.36 227.315L104.631 231.731L86.4437 228.773L87.1521 224.419L103.381 227.065Z" fill="white"/>
<path d="M108.43 207.308C109.373 208.907 109.477 211.068 108.743 213.787C108.045 216.412 106.665 218.344 104.597 219.579C102.545 220.829 100.17 221.094 97.4719 220.37C94.7375 219.636 92.7115 218.204 91.3885 216.079C90.0135 213.803 89.7219 211.183 90.5135 208.225C91.0865 206.131 92.0135 204.495 93.3052 203.329L97.4927 205.183L97.4302 205.287C96.6385 205.652 96.0552 206.1 95.6802 206.641C95.0865 207.547 94.6542 208.485 94.3885 209.454C94.1281 210.428 94.05 211.225 94.1594 211.85C94.2583 212.464 94.4719 213.032 94.8052 213.558C95.5031 214.6 96.5969 215.318 98.0969 215.704C100.753 216.428 102.732 215.985 104.034 214.37C104.482 213.803 104.8 213.162 104.993 212.454C105.175 211.745 105.279 211.115 105.305 210.558C105.336 209.99 105.295 209.464 105.18 208.975C104.961 207.933 104.597 207.172 104.097 206.683L104.18 206.558L108.43 207.308Z" fill="white"/>
<path d="M111.377 198.976C112.32 199.34 112.945 199.554 113.252 199.622L111.669 203.809L87.1477 194.455L88.7102 190.33L111.377 198.976Z" fill="white"/>
<path d="M106.812 190.974C105.593 190.349 104.572 189.557 103.749 188.599C102.916 187.641 102.307 186.578 101.916 185.412C101.083 182.943 101.348 180.391 102.708 177.766C103.848 175.531 105.51 174.115 107.687 173.516C109.786 172.932 111.911 173.198 114.062 174.307C114.88 174.724 115.406 175.073 115.645 175.349C115.406 176.547 114.463 178.74 112.812 181.932L109.978 187.453C111.228 187.776 112.426 187.599 113.562 186.932C114.697 186.255 115.671 185.12 116.478 183.537C117.338 181.87 117.775 180.297 117.791 178.807C117.791 178.391 117.76 178.078 117.708 177.87C118.15 178.11 118.588 178.36 119.02 178.62L121.374 180.057C121.51 181.141 121.228 182.62 120.52 184.495C120.312 185.052 120.088 185.573 119.853 186.057C118.489 188.698 116.583 190.495 114.124 191.453C111.682 192.386 109.244 192.224 106.812 190.974ZM110.999 177.995C108.531 177.276 106.781 177.922 105.749 179.932C104.932 181.516 104.994 183.073 105.937 184.599C106.228 185.057 106.593 185.49 107.02 185.891C107.161 185.641 107.327 185.339 107.52 184.974L108.103 183.828C108.327 183.453 108.531 183.089 108.708 182.724L109.166 181.828C109.447 181.302 109.708 180.781 109.958 180.266L110.562 178.932C110.728 178.589 110.874 178.276 110.999 177.995Z" fill="white"/>
<path d="M137.3 160.299C135.16 162.814 133.081 164.319 131.071 164.819C130.811 164.569 130.524 164.278 130.217 163.944L129.342 163.028C128.774 162.418 128.42 162.038 128.279 161.882C128.144 161.731 128.071 161.648 128.071 161.632C128.061 161.606 128.191 161.59 128.467 161.59C128.732 161.59 129.144 161.502 129.696 161.319C130.238 161.127 130.8 160.856 131.384 160.507C132.66 159.773 133.79 158.83 134.779 157.674C136.097 156.132 136.238 154.918 135.196 154.028C134.873 153.752 134.514 153.689 134.113 153.84C133.373 154.132 132.498 154.731 131.488 155.632C130.488 156.538 129.581 157.205 128.759 157.632C127.925 158.064 127.149 158.319 126.425 158.403C125.066 158.559 123.816 158.148 122.675 157.174C121.274 155.981 120.634 154.507 120.759 152.757C120.873 151.023 121.732 149.215 123.342 147.34C124.941 145.481 126.821 144.351 128.988 143.944C129.17 144.21 129.337 144.465 129.488 144.715C129.904 145.424 130.206 145.939 130.384 146.257L130.904 147.257C130.962 147.33 130.982 147.361 130.967 147.361C130.956 147.392 130.811 147.392 130.529 147.361C129.394 147.351 128.212 147.84 126.988 148.84C126.613 149.163 126.269 149.507 125.946 149.882C124.561 151.507 124.352 152.747 125.321 153.59C125.67 153.882 126.071 153.939 126.529 153.757C127.404 153.398 128.399 152.736 129.509 151.778C130.607 150.819 131.529 150.174 132.279 149.84C133.04 149.507 133.764 149.33 134.446 149.299C135.706 149.247 136.91 149.71 138.05 150.694C139.326 151.778 139.915 153.163 139.821 154.84C139.748 156.606 138.91 158.424 137.3 160.299Z" fill="white"/>
<path d="M152.593 142.44C152.286 144.388 151.473 145.94 150.155 147.107C148.723 148.357 147.176 148.867 145.509 148.628C143.911 148.367 142.4 147.414 140.968 145.773L136.343 140.544C134.801 138.784 133.879 137.805 133.572 137.607C133.27 137.414 133.062 137.294 132.947 137.253C133.395 136.919 133.832 136.56 134.259 136.169L135.364 135.211C135.655 134.95 136.03 134.601 136.489 134.169L143.218 141.815C144.812 143.638 146.228 144.263 147.468 143.69C147.853 143.513 148.223 143.263 148.572 142.94C149.614 142.023 150.119 140.914 150.093 139.607L141.489 129.815L144.759 126.94L155.447 139.086C156.124 139.851 156.655 140.378 157.03 140.669L153.655 143.648L152.593 142.44Z" fill="white"/>
<path d="M155.843 119.77C156.583 118.494 157.526 117.489 158.677 116.749C159.828 115.999 160.937 115.541 162.01 115.374C163.078 115.197 164.145 115.244 165.218 115.52C167.536 116.119 169.432 117.562 170.906 119.853C172.515 122.353 173.072 124.848 172.572 127.333C172.083 129.723 170.77 131.603 168.635 132.978C166.76 134.187 164.895 134.697 163.052 134.499C160.979 134.249 159.322 133.161 158.072 131.228L147.656 114.999L151.281 112.666L155.843 119.77ZM161.677 128.833C162.786 130.583 164.416 130.765 166.572 129.374C167.624 128.708 168.218 127.666 168.343 126.249C168.468 124.833 168.078 123.416 167.177 121.999C166.26 120.598 165.187 119.781 163.968 119.541C162.854 119.348 161.718 119.624 160.552 120.374C159.843 120.822 159.218 121.557 158.677 122.583C158.51 122.906 158.374 123.218 158.26 123.52L161.677 128.833Z" fill="white"/>
<path d="M185.728 123.61C182.728 124.985 180.212 125.48 178.186 125.089C178.045 124.745 177.915 124.36 177.79 123.943L177.373 122.735C177.123 121.933 176.967 121.438 176.894 121.256C176.827 121.063 176.801 120.953 176.811 120.922C176.811 120.896 176.936 120.938 177.186 121.047C177.436 121.162 177.842 121.245 178.415 121.297C178.983 121.355 179.608 121.355 180.29 121.297C181.759 121.162 183.186 120.771 184.561 120.131C186.405 119.287 187.045 118.245 186.478 117.006C186.311 116.62 185.998 116.412 185.54 116.381C184.759 116.339 183.728 116.521 182.436 116.922C181.144 117.328 180.03 117.547 179.103 117.589C178.186 117.62 177.373 117.526 176.665 117.318C175.373 116.891 174.415 115.995 173.79 114.631C173.03 112.964 173.061 111.355 173.894 109.797C174.728 108.271 176.269 106.995 178.519 105.964C180.738 104.953 182.926 104.714 185.082 105.256C185.123 105.563 185.165 105.86 185.207 106.151C185.29 106.974 185.337 107.568 185.353 107.943L185.415 109.047C185.426 109.146 185.426 109.193 185.415 109.193C185.399 109.209 185.269 109.141 185.019 108.985C183.978 108.516 182.696 108.48 181.186 108.881C180.712 108.995 180.248 109.151 179.79 109.36C177.842 110.266 177.139 111.308 177.665 112.485C177.858 112.891 178.207 113.099 178.707 113.11C179.649 113.167 180.821 112.995 182.228 112.589C183.644 112.172 184.759 111.974 185.582 111.985C186.415 112 187.144 112.141 187.769 112.401C188.92 112.891 189.811 113.818 190.436 115.193C191.144 116.709 191.103 118.209 190.311 119.693C189.504 121.276 187.978 122.584 185.728 123.61Z" fill="white"/>
<path d="M210.361 112.642C209.496 114.283 207.72 115.512 205.027 116.33C202.428 117.137 200.053 117.007 197.902 115.934C195.746 114.851 194.267 112.976 193.444 110.309C192.611 107.601 192.746 105.122 193.84 102.872C195.017 100.497 197.079 98.8611 200.027 97.9549C202.095 97.3195 203.975 97.2413 205.673 97.7257L206.298 102.226L206.194 102.247C205.47 101.778 204.777 101.528 204.111 101.497C203.038 101.455 202.017 101.59 201.048 101.892C200.09 102.184 199.371 102.549 198.902 102.976C198.428 103.392 198.059 103.872 197.798 104.413C197.298 105.569 197.267 106.882 197.715 108.351C198.533 110.991 199.975 112.429 202.048 112.663C202.757 112.747 203.454 112.679 204.152 112.455C204.861 112.236 205.449 111.986 205.923 111.705C206.408 111.429 206.84 111.116 207.215 110.767C207.965 110.049 208.413 109.33 208.569 108.622L208.715 108.642L210.361 112.642Z" fill="white"/>
<path d="M218.948 110.729C219.141 111.719 219.287 112.354 219.386 112.646L215.094 113.458L211.657 95.3749L215.886 94.5833L216.136 95.8958C216.912 94.5937 217.834 93.8437 218.907 93.6458C219.99 93.4374 220.87 93.4062 221.553 93.5416L222.115 98.2499L222.073 98.3333C221.516 97.6822 220.605 97.4791 219.344 97.7291C218.87 97.8124 218.412 98.0781 217.969 98.5208C217.521 98.9531 217.178 99.4687 216.928 100.062L218.948 110.729Z" fill="white"/>
<path d="M225.081 87.8257C225.867 86.284 226.711 84.8986 227.602 83.659L231.685 86.2424C231.253 86.8986 230.857 87.5497 230.497 88.2007C230.497 88.2007 230.107 88.8882 229.331 90.2632L225.081 87.8257ZM231.997 108.909C232.107 109.909 232.195 110.565 232.268 110.867L227.81 111.347L225.852 93.034L230.247 92.5549L231.997 108.909Z" fill="white"/>
<path d="M242.496 109.913L242.476 115.101C242.46 116.111 242.481 116.773 242.538 117.08L238.142 117.059L238.288 91.8507L242.601 91.8716L242.58 93.0174C244.022 92.0174 245.392 91.5278 246.684 91.5382C247.986 91.5382 249.142 91.7257 250.142 92.1007C251.153 92.4757 252.043 93.0486 252.809 93.8091C254.476 95.4757 255.299 97.8455 255.288 100.913C255.288 102.944 254.799 104.757 253.83 106.351C253.007 107.684 251.882 108.762 250.455 109.58C249.174 110.273 247.793 110.611 246.309 110.601C244.835 110.601 243.564 110.366 242.496 109.913ZM242.517 105.476C243.403 106.226 244.564 106.611 245.996 106.622C248.314 106.637 249.819 105.528 250.517 103.288C250.752 102.528 250.871 101.705 250.871 100.83C250.882 99.9549 250.809 99.257 250.642 98.7257C250.486 98.1997 250.272 97.7466 249.996 97.3716C249.731 96.9862 249.439 96.6632 249.121 96.4132C248.799 96.1528 248.476 95.9445 248.142 95.7882C247.528 95.5278 246.903 95.3924 246.267 95.3924C245.642 95.382 244.981 95.5174 244.288 95.8091C243.606 96.1007 243.028 96.4914 242.559 96.9757L242.517 105.476Z" fill="white"/>
<path d="M268.121 108.219C269.621 108.427 270.705 108.177 271.371 107.469H271.517L271.017 111.531C270.361 112.031 269.252 112.266 267.684 112.24C267.236 112.25 266.705 112.219 266.08 112.135C265.465 112.052 264.814 111.833 264.121 111.49C263.423 111.156 262.861 110.693 262.434 110.115C261.517 108.88 261.21 107.115 261.517 104.823L262.621 96.8854L259.996 96.5104C260.022 96.177 260.059 95.8385 260.101 95.4895L260.476 92.802C260.502 92.5937 260.522 92.4895 260.538 92.4895L263.163 92.8645L263.851 87.8854L268.121 88.4687L267.434 93.4479L272.246 94.0937L271.705 98.1145L266.892 97.4687L265.913 104.594C265.663 106.427 266.028 107.542 267.017 107.927C267.309 108.068 267.673 108.167 268.121 108.219Z" fill="white"/>
<path d="M280.084 90.3453C281.334 89.1369 282.584 88.1057 283.834 87.2411L286.834 91.0119C286.209 91.5015 285.626 91.9859 285.084 92.4703C285.084 92.4703 284.501 92.9911 283.334 94.0328L280.084 90.3453ZM279.709 112.512C279.485 113.507 279.36 114.163 279.334 114.47L274.959 113.449L279.126 95.5119L283.438 96.5119L279.709 112.512Z" fill="white"/>
<path d="M286.645 106.72C287.062 105.501 287.671 104.407 288.478 103.449C289.28 102.48 290.228 101.715 291.312 101.157C293.629 99.9489 296.135 99.8187 298.833 100.761C301.541 101.72 303.385 103.334 304.374 105.595C305.317 107.751 305.333 110.116 304.416 112.699C303.51 115.267 301.968 117.126 299.791 118.282C297.51 119.491 295.01 119.616 292.291 118.657C289.484 117.668 287.593 116.006 286.624 113.678C285.734 111.569 285.739 109.251 286.645 106.72ZM290.708 108.053C290.468 108.751 290.343 109.465 290.333 110.199C290.333 110.923 290.468 111.59 290.749 112.199C291.301 113.548 292.322 114.48 293.812 114.991C295.197 115.491 296.468 115.381 297.624 114.678C298.734 114.011 299.562 112.918 300.103 111.386C300.645 109.834 300.687 108.428 300.228 107.178C299.728 105.886 298.734 104.98 297.249 104.449C295.749 103.923 294.379 104.043 293.145 104.803C292.02 105.543 291.208 106.626 290.708 108.053Z" fill="white"/>
<path d="M310.131 123.518C309.641 124.419 309.329 125.102 309.193 125.56L305.277 123.456L313.964 107.206L317.756 109.247L317.006 110.643C318.975 110.227 320.74 110.435 322.298 111.268C324.006 112.175 325.053 113.477 325.443 115.185C325.844 116.883 325.537 118.675 324.527 120.56L321.235 126.727C320.287 128.477 319.745 129.539 319.61 129.914C319.469 130.3 319.412 130.57 319.443 130.727C319.485 130.878 319.516 131.023 319.548 131.164L319.464 131.185C318.657 130.654 318.068 130.294 317.693 130.102L316.61 129.518C316.277 129.336 315.818 129.112 315.235 128.852L319.756 120.372C321.381 117.331 321.277 115.326 319.443 114.352C318.068 113.617 316.548 113.716 314.881 114.643L310.131 123.518Z" fill="white"/>
<path d="M346.099 149.796C344.251 149.921 342.266 149.051 340.141 147.192C338.099 145.384 336.985 143.286 336.808 140.9C336.599 138.499 337.417 136.249 339.266 134.15C341.141 132.025 343.329 130.853 345.829 130.629C348.464 130.395 350.938 131.291 353.245 133.317C354.87 134.765 355.917 136.332 356.391 138.025L352.891 140.921L352.787 140.817C352.829 139.952 352.683 139.233 352.349 138.65C351.818 137.733 351.172 136.942 350.412 136.275C349.662 135.608 348.985 135.181 348.391 134.983C347.792 134.791 347.183 134.728 346.558 134.796C345.318 134.963 344.188 135.624 343.162 136.775C341.339 138.848 340.87 140.827 341.745 142.733C342.047 143.369 342.474 143.931 343.016 144.421C343.568 144.905 344.099 145.28 344.599 145.546C345.099 145.806 345.584 146.004 346.058 146.129C347.084 146.405 347.933 146.426 348.599 146.192L348.662 146.317L346.099 149.796Z" fill="white"/>
<path d="M353.964 147.132C354.948 146.299 356.031 145.669 357.214 145.236C358.406 144.809 359.609 144.611 360.818 144.653C363.412 144.778 365.641 145.934 367.505 148.111C369.365 150.294 370.156 152.611 369.88 155.07C369.63 157.387 368.464 159.434 366.38 161.215C364.297 162.991 362.026 163.84 359.568 163.757C356.984 163.643 354.755 162.491 352.88 160.299C350.948 158.033 350.151 155.653 350.484 153.153C350.776 150.893 351.932 148.882 353.964 147.132ZM356.839 150.32C356.281 150.809 355.818 151.372 355.443 152.007C355.068 152.632 354.844 153.278 354.776 153.945C354.594 155.372 355.016 156.695 356.047 157.903C357.005 159.028 358.156 159.57 359.505 159.528C360.797 159.497 362.052 158.965 363.276 157.924C364.537 156.851 365.281 155.663 365.505 154.361C365.724 152.971 365.328 151.684 364.318 150.486C363.276 149.278 362.031 148.695 360.589 148.736C359.24 148.809 357.99 149.335 356.839 150.32Z" fill="white"/>
<path d="M365.903 173.438C365.028 173.979 364.414 174.417 364.07 174.75L361.716 170.979L377.362 161.271L379.633 164.917L378.299 165.75C380.2 166.375 381.617 167.443 382.549 168.938C383.56 170.573 383.81 172.229 383.299 173.896C382.799 175.573 381.638 176.979 379.82 178.104L373.883 181.792C372.185 182.834 371.179 183.485 370.862 183.75C370.554 184.011 370.372 184.219 370.32 184.375C370.278 184.526 370.237 184.657 370.195 184.771H370.133C369.685 183.907 369.351 183.297 369.133 182.938L368.487 181.875C368.289 181.552 367.997 181.136 367.612 180.625L375.778 175.563C378.706 173.74 379.622 171.948 378.528 170.188C377.706 168.865 376.346 168.188 374.445 168.146L365.903 173.438Z" fill="white"/>
<path d="M374.723 195.053C373.39 192.022 372.937 189.501 373.369 187.491C373.713 187.366 374.098 187.231 374.515 187.095L375.744 186.72C376.546 186.47 377.041 186.319 377.223 186.262C377.416 186.21 377.525 186.178 377.556 186.178C377.582 186.178 377.536 186.303 377.411 186.553C377.286 186.803 377.187 187.204 377.119 187.762C377.062 188.329 377.056 188.96 377.098 189.658C377.223 191.126 377.588 192.559 378.202 193.949C379.02 195.809 380.056 196.46 381.306 195.908C381.692 195.741 381.9 195.434 381.931 194.991C381.983 194.21 381.827 193.168 381.452 191.866C381.088 190.559 380.895 189.439 380.869 188.512C380.838 187.595 380.942 186.793 381.181 186.095C381.624 184.803 382.536 183.856 383.911 183.241C385.588 182.507 387.187 182.585 388.702 183.47C390.213 184.319 391.473 185.876 392.473 188.137C393.457 190.371 393.65 192.559 393.056 194.699C392.749 194.741 392.457 194.783 392.181 194.824C391.358 194.876 390.765 194.913 390.39 194.928L389.265 194.991C389.192 195.001 389.15 195.001 389.14 194.991C389.124 194.96 389.192 194.824 389.348 194.574C389.832 193.559 389.89 192.283 389.515 190.741C389.4 190.267 389.249 189.803 389.056 189.345C388.192 187.387 387.171 186.668 385.994 187.178C385.577 187.356 385.353 187.704 385.327 188.22C385.244 189.163 385.395 190.335 385.786 191.741C386.187 193.158 386.369 194.283 386.327 195.116C386.296 195.949 386.145 196.668 385.869 197.283C385.379 198.434 384.442 199.309 383.056 199.908C381.525 200.585 380.02 200.517 378.536 199.699C376.978 198.866 375.707 197.314 374.723 195.053Z" fill="white"/>
<path d="M384.181 216.592C382.567 215.467 381.52 214.056 381.035 212.363C380.535 210.53 380.754 208.926 381.702 207.551C382.629 206.217 384.145 205.249 386.244 204.655L392.973 202.78C395.223 202.155 396.499 201.749 396.806 201.551C397.124 201.358 397.317 201.228 397.389 201.155C397.483 201.686 397.619 202.233 397.785 202.801L398.181 204.196C398.275 204.571 398.421 205.071 398.619 205.696L388.806 208.426C386.473 209.077 385.306 210.082 385.306 211.446C385.29 211.863 385.348 212.301 385.473 212.759C385.848 214.092 386.629 215.03 387.827 215.571L400.369 212.071L401.535 216.259L385.973 220.613C384.983 220.889 384.275 221.139 383.848 221.363L382.639 217.03L384.181 216.592Z" fill="white"/>
<path d="M387.512 231.273C386.512 231.424 385.855 231.549 385.553 231.648L384.845 227.231L410.762 223.023L411.47 227.377L387.512 231.273Z" fill="white"/>
<path d="M390.789 245.319C390.899 246.819 391.357 247.819 392.164 248.319L392.185 248.465L388.122 248.819C387.497 248.278 387.039 247.241 386.747 245.715C386.649 245.283 386.581 244.757 386.539 244.132C386.497 243.507 386.565 242.819 386.747 242.069C386.94 241.319 387.279 240.663 387.768 240.111C388.794 238.97 390.461 238.325 392.768 238.173L400.747 237.611L400.56 234.944C400.904 234.903 401.253 234.871 401.602 234.861L404.31 234.673C404.518 234.647 404.622 234.642 404.622 234.653L404.81 237.319L409.81 236.986L410.102 241.278L405.102 241.611L405.435 246.444L401.372 246.736L401.039 241.903L393.872 242.403C392.024 242.528 391.018 243.116 390.852 244.173C390.779 244.491 390.758 244.871 390.789 245.319Z" fill="white"/>
<path d="M387.585 265.253C386.798 263.529 386.439 261.988 386.522 260.628C386.606 259.279 386.809 258.133 387.127 257.191C387.429 256.258 387.845 255.472 388.377 254.837C389.46 253.529 390.939 252.93 392.814 253.045C394.507 253.154 395.866 254.076 396.897 255.816C398.007 257.691 398.465 260.175 398.272 263.274L398.21 263.982C398.194 264.118 398.179 264.274 398.168 264.441C398.153 264.618 398.127 264.779 398.085 264.92C399.97 264.946 401.127 264.212 401.543 262.712C401.679 262.196 401.762 261.654 401.793 261.087C401.835 260.514 401.819 259.951 401.752 259.399C401.679 258.857 401.574 258.321 401.439 257.795C401.147 256.639 400.778 255.805 400.335 255.295L400.377 255.232L404.293 254.962C405.262 257.087 405.673 259.378 405.522 261.837C405.283 265.67 403.757 268.029 400.939 268.92C400.048 269.196 399.048 269.3 397.939 269.232L391.585 268.857C390.22 268.774 389.257 269.196 388.689 270.128L385.981 266.795C386.371 266.128 386.908 265.613 387.585 265.253ZM394.918 264.753C395.002 264.43 395.048 264.107 395.064 263.774L395.106 263.066C395.272 260.467 394.798 258.779 393.689 258.003C393.366 257.764 393.022 257.633 392.647 257.607C392.272 257.592 391.939 257.639 391.647 257.753C391.356 257.878 391.095 258.092 390.877 258.399C390.502 258.982 390.272 259.878 390.189 261.087C390.116 262.295 390.34 263.441 390.856 264.524C390.981 264.508 391.111 264.508 391.252 264.524L394.918 264.753Z" fill="white"/>
<path d="M386.753 279.412C385.743 279.189 384.993 279.079 384.503 279.079L385.441 274.746L403.441 278.642L402.545 282.829L401.003 282.475C401.931 284.267 402.217 286.022 401.858 287.746C401.441 289.631 400.467 291.001 398.941 291.85C397.41 292.694 395.597 292.897 393.503 292.454L386.67 290.975C384.727 290.558 383.561 290.329 383.17 290.287C382.769 290.256 382.498 290.277 382.358 290.35C382.207 290.433 382.076 290.496 381.962 290.537L381.92 290.496C382.201 289.579 382.389 288.912 382.483 288.496L382.733 287.287C382.816 286.923 382.91 286.423 383.003 285.787L392.399 287.829C395.759 288.548 397.654 287.892 398.087 285.85C398.42 284.319 397.92 282.881 396.587 281.537L386.753 279.412Z" fill="white"/>
<path d="M377.098 309.45C376.306 307.768 376.4 305.607 377.369 302.971C378.317 300.414 379.864 298.622 382.015 297.596C384.192 296.539 386.588 296.492 389.202 297.45C391.869 298.435 393.754 300.044 394.869 302.284C396.02 304.669 396.067 307.304 395.015 310.179C394.265 312.205 393.181 313.747 391.765 314.804L387.806 312.596L387.869 312.471C388.702 312.19 389.317 311.789 389.723 311.263C390.4 310.44 390.916 309.56 391.265 308.617C391.608 307.669 391.765 306.877 391.723 306.242C391.692 305.617 391.535 305.023 391.244 304.471C390.629 303.388 389.603 302.575 388.16 302.034C385.577 301.086 383.561 301.357 382.119 302.846C381.629 303.357 381.265 303.961 381.015 304.659C380.754 305.351 380.588 305.976 380.515 306.534C380.447 307.086 380.431 307.607 380.473 308.096C380.598 309.148 380.89 309.95 381.348 310.492L381.244 310.596L377.098 309.45Z" fill="white"/>
<path d="M369.027 308.39L369.319 309.869C369.751 312.062 370.918 314.312 372.819 316.619L374.173 318.265L390.923 319.453L388.631 323.828L377.235 322.619L384.819 331.036L382.464 335.536C381.991 334.604 380.944 333.203 379.319 331.328L374.756 325.953C369.063 318.953 365.98 314.187 365.506 311.661L369.027 308.39Z" fill="white"/>
<mask id="mask2_1_2" style="mask-type:luminance" maskUnits="userSpaceOnUse" x="230" y="217" width="140" height="66">
<path d="M370 217H230V282.333H370V217Z" fill="white"/>
</mask>
<g mask="url(#mask2_1_2)">
<path d="M249.762 263.151C249.231 263.079 248.366 263.047 247.158 263.047H244.449C244.001 263.047 243.6 263.058 243.241 263.089L243.22 263.047C243.288 262.938 243.324 262.808 243.324 262.651C243.324 262.5 243.309 262.349 243.283 262.193C243.251 262.026 243.184 261.73 243.074 261.297C242.96 260.87 242.783 260.25 242.533 259.443L241.491 256.151L232.324 230.172C233.35 230.23 234.647 230.256 236.22 230.256C237.803 230.256 238.814 230.193 239.262 230.068L246.678 252.464L253.178 230.172C254.163 230.23 255.376 230.256 256.824 230.256C258.793 230.256 259.949 230.193 260.283 230.068L251.283 256.068C251.283 256.068 250.996 257.037 250.428 258.964C249.939 260.605 249.699 261.667 249.699 262.151C249.699 262.641 249.731 262.943 249.803 263.068L249.762 263.151Z" fill="white"/>
<path d="M279.083 263.047C279.292 262.412 279.396 260.917 279.396 258.568V251.714C276.547 245.454 274.729 241.542 273.937 239.985C273.156 238.433 272.5 237.204 271.958 236.297C270.25 233.412 269.214 231.756 268.854 231.339C268.505 230.912 268.151 230.547 267.792 230.256H276.292C276.469 230.589 276.714 231.079 277.021 231.714L283 244.318C283.276 243.625 283.604 242.855 283.979 242.006C287.562 234.297 289.375 230.381 289.417 230.256H297.562C296.729 230.938 295.698 232.355 294.479 234.506C294.104 235.146 293.729 235.875 293.354 236.693L287.771 248.318C287.146 249.709 286.609 250.964 286.167 252.089V259.151C286.167 260.792 286.271 262.089 286.479 263.047H279.083Z" fill="white"/>
<path d="M323.363 229.651C326.431 229.651 329.051 230.188 331.217 231.256V238.797L331.176 238.839C330.243 237.422 328.301 236.485 325.342 236.026C324.478 235.891 323.384 235.818 322.051 235.818C320.717 235.818 319.41 236.068 318.134 236.568C316.853 237.068 315.801 237.776 314.967 238.693C313.384 240.485 312.592 243.042 312.592 246.36C312.592 250.224 313.598 253.099 315.613 254.985C317.29 256.568 319.514 257.36 322.28 257.36C325.389 257.36 327.915 256.693 329.863 255.36C330.572 254.891 331.165 254.297 331.655 253.589L331.738 253.631V260.526C329.223 262.625 325.832 263.672 321.572 263.672C316.572 263.672 312.644 262.079 309.801 258.881C307.077 255.839 305.717 251.813 305.717 246.797C305.717 241.495 307.207 237.313 310.197 234.256C313.223 231.188 317.613 229.651 323.363 229.651Z" fill="white"/>
<path d="M349.812 263.047C347.395 263.047 345.791 263.094 344.999 263.193V230.11C345.4 230.209 346.218 230.256 347.457 230.256C348.707 230.256 350.15 230.23 351.791 230.172V257.131H356.895C358.364 257.131 359.546 257.084 360.437 256.985C360.322 260.834 360.27 262.829 360.27 262.964V263.214C358.655 263.099 355.957 263.047 352.166 263.047H349.812Z" fill="white"/>

</g>
</g>
</g>
<defs>
<clipPath id="clip_circle">
<circle cx="245.333" cy="247.807" r="153.609"/>
</clipPath>
</defs>
</svg>